<?xml version="1.0" encoding="UTF-8" standalone="no"?>
<!DOCTYPE svg PUBLIC "-//W3C//DTD SVG 1.1//EN"
 "http://www.w3.org/Graphics/SVG/1.1/DTD/svg11.dtd">
<!-- Generated by graphviz version 2.28.0 (20120617.2251)
 -->
<!-- Title: controllers_diagram Pages: 1 -->
<svg width="1034pt" height="1113pt"
 viewBox="0.00 0.00 1033.63 1113.00" xmlns="http://www.w3.org/2000/svg" xmlns:xlink="http://www.w3.org/1999/xlink">
<g id="graph1" class="graph" transform="scale(1 1) rotate(0) translate(4 1109)">
<title>controllers_diagram</title>
<polygon fill="white" stroke="white" points="-4,5 -4,-1109 1030.63,-1109 1030.63,5 -4,5"/>
<!-- _diagram_info -->
<g id="node1" class="node"><title>_diagram_info</title>
<text text-anchor="start" x="8" y="-149.4" font-family="Times,serif" font-size="13.00">Controllers diagram</text>
<text text-anchor="start" x="8" y="-133.8" font-family="Times,serif" font-size="13.00">Date: Jun 17 2012 &#45; 22:14</text>
<text text-anchor="start" x="8" y="-118.2" font-family="Times,serif" font-size="13.00">Generated by RailRoady 1.0.7</text>
<text text-anchor="start" x="8" y="-102.6" font-family="Times,serif" font-size="13.00">http://railroady.prestonlee.com</text>
</g>
<!-- AnswersController -->
<g id="node2" class="node"><title>AnswersController</title>
<polyline fill="none" stroke="black" points="828,-288.5 1006.63,-288.5 "/>
<path fill="none" stroke="black" d="M1006.63,-288.5C1012.63,-288.5 1018.63,-294.5 1018.63,-300.5"/>
<polyline fill="none" stroke="black" points="1018.63,-300.5 1018.63,-425.3 "/>
<path fill="none" stroke="black" d="M1018.63,-425.3C1018.63,-431.3 1012.63,-437.3 1006.63,-437.3"/>
<polyline fill="none" stroke="black" points="1006.63,-437.3 828,-437.3 "/>
<path fill="none" stroke="black" d="M828,-437.3C822,-437.3 816,-431.3 816,-425.3"/>
<polyline fill="none" stroke="black" points="816,-425.3 816,-300.5 "/>
<path fill="none" stroke="black" d="M816,-300.5C816,-294.5 822,-288.5 828,-288.5"/>
<text text-anchor="middle" x="917.317" y="-419.3" font-family="Times,serif" font-size="14.00">AnswersController</text>
<polyline fill="none" stroke="black" points="816,-412.5 1018.63,-412.5 "/>
<text text-anchor="start" x="824" y="-394.5" font-family="Times,serif" font-size="14.00">_one_time_conditions_valid_86?</text>
<text text-anchor="start" x="824" y="-377.7" font-family="Times,serif" font-size="14.00">errors</text>
<text text-anchor="start" x="824" y="-360.9" font-family="Times,serif" font-size="14.00">show</text>
<text text-anchor="start" x="824" y="-344.1" font-family="Times,serif" font-size="14.00">user_errors</text>
<polyline fill="none" stroke="black" points="816,-337.3 1018.63,-337.3 "/>
<polyline fill="none" stroke="black" points="816,-313.3 1018.63,-313.3 "/>
<text text-anchor="start" x="824" y="-295.3" font-family="Times,serif" font-size="14.00">_layout</text>
</g>
<!-- ApplicationController -->
<g id="node3" class="node"><title>ApplicationController</title>
<polyline fill="none" stroke="black" points="828,-96.5 1006.63,-96.5 "/>
<path fill="none" stroke="black" d="M1006.63,-96.5C1012.63,-96.5 1018.63,-102.5 1018.63,-108.5"/>
<polyline fill="none" stroke="black" points="1018.63,-108.5 1018.63,-234.1 "/>
<path fill="none" stroke="black" d="M1018.63,-234.1C1018.63,-240.1 1012.63,-246.1 1006.63,-246.1"/>
<polyline fill="none" stroke="black" points="1006.63,-246.1 828,-246.1 "/>
<path fill="none" stroke="black" d="M828,-246.1C822,-246.1 816,-240.1 816,-234.1"/>
<polyline fill="none" stroke="black" points="816,-234.1 816,-108.5 "/>
<path fill="none" stroke="black" d="M816,-108.5C816,-102.5 822,-96.5 828,-96.5"/>
<text text-anchor="middle" x="917.317" y="-228.1" font-family="Times,serif" font-size="14.00">ApplicationController</text>
<polyline fill="none" stroke="black" points="816,-221.3 1018.63,-221.3 "/>
<text text-anchor="start" x="824" y="-203.3" font-family="Times,serif" font-size="14.00">_callback_before_69</text>
<text text-anchor="start" x="824" y="-186.5" font-family="Times,serif" font-size="14.00">_one_time_conditions_valid_68?</text>
<text text-anchor="start" x="824" y="-169.7" font-family="Times,serif" font-size="14.00">_one_time_conditions_valid_70?</text>
<polyline fill="none" stroke="black" points="816,-162.9 1018.63,-162.9 "/>
<text text-anchor="start" x="824" y="-144.9" font-family="Times,serif" font-size="14.00">ckeditor_authenticate</text>
<text text-anchor="start" x="824" y="-128.1" font-family="Times,serif" font-size="14.00">ckeditor_filebrowser_scope</text>
<polyline fill="none" stroke="black" points="816,-121.3 1018.63,-121.3 "/>
<text text-anchor="start" x="824" y="-103.3" font-family="Times,serif" font-size="14.00">_layout</text>
</g>
<!-- ExercisesController -->
<g id="node4" class="node"><title>ExercisesController</title>
<polyline fill="none" stroke="black" points="564,-360.5 749.635,-360.5 "/>
<path fill="none" stroke="black" d="M749.635,-360.5C755.635,-360.5 761.635,-366.5 761.635,-372.5"/>
<polyline fill="none" stroke="black" points="761.635,-372.5 761.635,-698.9 "/>
<path fill="none" stroke="black" d="M761.635,-698.9C761.635,-704.9 755.635,-710.9 749.635,-710.9"/>
<polyline fill="none" stroke="black" points="749.635,-710.9 564,-710.9 "/>
<path fill="none" stroke="black" d="M564,-710.9C558,-710.9 552,-704.9 552,-698.9"/>
<polyline fill="none" stroke="black" points="552,-698.9 552,-372.5 "/>
<path fill="none" stroke="black" d="M552,-372.5C552,-366.5 558,-360.5 564,-360.5"/>
<text text-anchor="middle" x="656.817" y="-692.9" font-family="Times,serif" font-size="14.00">ExercisesController</text>
<polyline fill="none" stroke="black" points="552,-686.1 761.635,-686.1 "/>
<text text-anchor="start" x="560" y="-668.1" font-family="Times,serif" font-size="14.00">_callback_before_121</text>
<text text-anchor="start" x="560" y="-651.3" font-family="Times,serif" font-size="14.00">_one_time_conditions_valid_116?</text>
<text text-anchor="start" x="560" y="-634.5" font-family="Times,serif" font-size="14.00">_one_time_conditions_valid_118?</text>
<text text-anchor="start" x="560" y="-617.7" font-family="Times,serif" font-size="14.00">_one_time_conditions_valid_122?</text>
<text text-anchor="start" x="560" y="-600.9" font-family="Times,serif" font-size="14.00">create</text>
<text text-anchor="start" x="560" y="-584.1" font-family="Times,serif" font-size="14.00">destroy</text>
<text text-anchor="start" x="560" y="-567.3" font-family="Times,serif" font-size="14.00">edit</text>
<text text-anchor="start" x="560" y="-550.5" font-family="Times,serif" font-size="14.00">new</text>
<text text-anchor="start" x="560" y="-533.7" font-family="Times,serif" font-size="14.00">show</text>
<text text-anchor="start" x="560" y="-516.9" font-family="Times,serif" font-size="14.00">show_questions</text>
<text text-anchor="start" x="560" y="-500.1" font-family="Times,serif" font-size="14.00">sort_questions</text>
<text text-anchor="start" x="560" y="-483.3" font-family="Times,serif" font-size="14.00">update</text>
<text text-anchor="start" x="560" y="-466.5" font-family="Times,serif" font-size="14.00">update_fractal_size</text>
<polyline fill="none" stroke="black" points="552,-459.7 761.635,-459.7 "/>
<polyline fill="none" stroke="black" points="552,-435.7 761.635,-435.7 "/>
<text text-anchor="start" x="560" y="-417.7" font-family="Times,serif" font-size="14.00">_layout</text>
<text text-anchor="start" x="560" y="-400.9" font-family="Times,serif" font-size="14.00">create_fractal</text>
<text text-anchor="start" x="560" y="-384.1" font-family="Times,serif" font-size="14.00">find_learning_object</text>
<text text-anchor="start" x="560" y="-367.3" font-family="Times,serif" font-size="14.00">load_params</text>
</g>
<!-- FractalsController -->
<g id="node5" class="node"><title>FractalsController</title>
<polyline fill="none" stroke="black" points="36,-504.5 221.635,-504.5 "/>
<path fill="none" stroke="black" d="M221.635,-504.5C227.635,-504.5 233.635,-510.5 233.635,-516.5"/>
<polyline fill="none" stroke="black" points="233.635,-516.5 233.635,-775.7 "/>
<path fill="none" stroke="black" d="M233.635,-775.7C233.635,-781.7 227.635,-787.7 221.635,-787.7"/>
<polyline fill="none" stroke="black" points="221.635,-787.7 36,-787.7 "/>
<path fill="none" stroke="black" d="M36,-787.7C30,-787.7 24,-781.7 24,-775.7"/>
<polyline fill="none" stroke="black" points="24,-775.7 24,-516.5 "/>
<path fill="none" stroke="black" d="M24,-516.5C24,-510.5 30,-504.5 36,-504.5"/>
<text text-anchor="middle" x="128.817" y="-769.7" font-family="Times,serif" font-size="14.00">FractalsController</text>
<polyline fill="none" stroke="black" points="24,-762.9 233.635,-762.9 "/>
<text text-anchor="start" x="32" y="-744.9" font-family="Times,serif" font-size="14.00">_callback_before_143</text>
<text text-anchor="start" x="32" y="-728.1" font-family="Times,serif" font-size="14.00">_one_time_conditions_valid_138?</text>
<text text-anchor="start" x="32" y="-711.3" font-family="Times,serif" font-size="14.00">_one_time_conditions_valid_142?</text>
<text text-anchor="start" x="32" y="-694.5" font-family="Times,serif" font-size="14.00">_one_time_conditions_valid_144?</text>
<text text-anchor="start" x="32" y="-677.7" font-family="Times,serif" font-size="14.00">create</text>
<text text-anchor="start" x="32" y="-660.9" font-family="Times,serif" font-size="14.00">destroy</text>
<text text-anchor="start" x="32" y="-644.1" font-family="Times,serif" font-size="14.00">edit</text>
<text text-anchor="start" x="32" y="-627.3" font-family="Times,serif" font-size="14.00">index</text>
<text text-anchor="start" x="32" y="-610.5" font-family="Times,serif" font-size="14.00">new</text>
<text text-anchor="start" x="32" y="-593.7" font-family="Times,serif" font-size="14.00">show</text>
<text text-anchor="start" x="32" y="-576.9" font-family="Times,serif" font-size="14.00">update</text>
<polyline fill="none" stroke="black" points="24,-570.1 233.635,-570.1 "/>
<polyline fill="none" stroke="black" points="24,-546.1 233.635,-546.1 "/>
<text text-anchor="start" x="32" y="-528.1" font-family="Times,serif" font-size="14.00">_layout</text>
<text text-anchor="start" x="32" y="-511.3" font-family="Times,serif" font-size="14.00">load_breadcrumb</text>
</g>
<!-- HelpController -->
<g id="node6" class="node"><title>HelpController</title>
<polyline fill="none" stroke="black" points="300,-144.5 485.635,-144.5 "/>
<path fill="none" stroke="black" d="M485.635,-144.5C491.635,-144.5 497.635,-150.5 497.635,-156.5"/>
<polyline fill="none" stroke="black" points="497.635,-156.5 497.635,-264.5 "/>
<path fill="none" stroke="black" d="M497.635,-264.5C497.635,-270.5 491.635,-276.5 485.635,-276.5"/>
<polyline fill="none" stroke="black" points="485.635,-276.5 300,-276.5 "/>
<path fill="none" stroke="black" d="M300,-276.5C294,-276.5 288,-270.5 288,-264.5"/>
<polyline fill="none" stroke="black" points="288,-264.5 288,-156.5 "/>
<path fill="none" stroke="black" d="M288,-156.5C288,-150.5 294,-144.5 300,-144.5"/>
<text text-anchor="middle" x="392.817" y="-258.5" font-family="Times,serif" font-size="14.00">HelpController</text>
<polyline fill="none" stroke="black" points="288,-251.7 497.635,-251.7 "/>
<text text-anchor="start" x="296" y="-233.7" font-family="Times,serif" font-size="14.00">_callback_before_147</text>
<text text-anchor="start" x="296" y="-216.9" font-family="Times,serif" font-size="14.00">_one_time_conditions_valid_148?</text>
<text text-anchor="start" x="296" y="-200.1" font-family="Times,serif" font-size="14.00">index</text>
<polyline fill="none" stroke="black" points="288,-193.3 497.635,-193.3 "/>
<polyline fill="none" stroke="black" points="288,-169.3 497.635,-169.3 "/>
<text text-anchor="start" x="296" y="-151.3" font-family="Times,serif" font-size="14.00">_layout</text>
</g>
<!-- IntroductionsController -->
<g id="node7" class="node"><title>IntroductionsController</title>
<polyline fill="none" stroke="black" points="36,-216.5 221.635,-216.5 "/>
<path fill="none" stroke="black" d="M221.635,-216.5C227.635,-216.5 233.635,-222.5 233.635,-228.5"/>
<polyline fill="none" stroke="black" points="233.635,-228.5 233.635,-454.1 "/>
<path fill="none" stroke="black" d="M233.635,-454.1C233.635,-460.1 227.635,-466.1 221.635,-466.1"/>
<polyline fill="none" stroke="black" points="221.635,-466.1 36,-466.1 "/>
<path fill="none" stroke="black" d="M36,-466.1C30,-466.1 24,-460.1 24,-454.1"/>
<polyline fill="none" stroke="black" points="24,-454.1 24,-228.5 "/>
<path fill="none" stroke="black" d="M24,-228.5C24,-222.5 30,-216.5 36,-216.5"/>
<text text-anchor="middle" x="128.817" y="-448.1" font-family="Times,serif" font-size="14.00">IntroductionsController</text>
<polyline fill="none" stroke="black" points="24,-441.3 233.635,-441.3 "/>
<text text-anchor="start" x="32" y="-423.3" font-family="Times,serif" font-size="14.00">_callback_before_155</text>
<text text-anchor="start" x="32" y="-406.5" font-family="Times,serif" font-size="14.00">_one_time_conditions_valid_156?</text>
<text text-anchor="start" x="32" y="-389.7" font-family="Times,serif" font-size="14.00">_one_time_conditions_valid_158?</text>
<text text-anchor="start" x="32" y="-372.9" font-family="Times,serif" font-size="14.00">create</text>
<text text-anchor="start" x="32" y="-356.1" font-family="Times,serif" font-size="14.00">destroy</text>
<text text-anchor="start" x="32" y="-339.3" font-family="Times,serif" font-size="14.00">edit</text>
<text text-anchor="start" x="32" y="-322.5" font-family="Times,serif" font-size="14.00">new</text>
<text text-anchor="start" x="32" y="-305.7" font-family="Times,serif" font-size="14.00">show</text>
<text text-anchor="start" x="32" y="-288.9" font-family="Times,serif" font-size="14.00">update</text>
<polyline fill="none" stroke="black" points="24,-282.1 233.635,-282.1 "/>
<polyline fill="none" stroke="black" points="24,-258.1 233.635,-258.1 "/>
<text text-anchor="start" x="32" y="-240.1" font-family="Times,serif" font-size="14.00">_layout</text>
<text text-anchor="start" x="32" y="-223.3" font-family="Times,serif" font-size="14.00">find_learning_object</text>
</g>
<!-- LearningGroupsController -->
<g id="node8" class="node"><title>LearningGroupsController</title>
<polyline fill="none" stroke="black" points="300,-312.5 485.635,-312.5 "/>
<path fill="none" stroke="black" d="M485.635,-312.5C491.635,-312.5 497.635,-318.5 497.635,-324.5"/>
<polyline fill="none" stroke="black" points="497.635,-324.5 497.635,-667.7 "/>
<path fill="none" stroke="black" d="M497.635,-667.7C497.635,-673.7 491.635,-679.7 485.635,-679.7"/>
<polyline fill="none" stroke="black" points="485.635,-679.7 300,-679.7 "/>
<path fill="none" stroke="black" d="M300,-679.7C294,-679.7 288,-673.7 288,-667.7"/>
<polyline fill="none" stroke="black" points="288,-667.7 288,-324.5 "/>
<path fill="none" stroke="black" d="M288,-324.5C288,-318.5 294,-312.5 300,-312.5"/>
<text text-anchor="middle" x="392.817" y="-661.7" font-family="Times,serif" font-size="14.00">LearningGroupsController</text>
<polyline fill="none" stroke="black" points="288,-654.9 497.635,-654.9 "/>
<text text-anchor="start" x="296" y="-636.9" font-family="Times,serif" font-size="14.00">_callback_before_189</text>
<text text-anchor="start" x="296" y="-620.1" font-family="Times,serif" font-size="14.00">_one_time_conditions_valid_190?</text>
<text text-anchor="start" x="296" y="-603.3" font-family="Times,serif" font-size="14.00">_one_time_conditions_valid_192?</text>
<text text-anchor="start" x="296" y="-586.5" font-family="Times,serif" font-size="14.00">all_groups</text>
<text text-anchor="start" x="296" y="-569.7" font-family="Times,serif" font-size="14.00">create</text>
<text text-anchor="start" x="296" y="-552.9" font-family="Times,serif" font-size="14.00">destroy</text>
<text text-anchor="start" x="296" y="-536.1" font-family="Times,serif" font-size="14.00">edit</text>
<text text-anchor="start" x="296" y="-519.3" font-family="Times,serif" font-size="14.00">enroll</text>
<text text-anchor="start" x="296" y="-502.5" font-family="Times,serif" font-size="14.00">index</text>
<text text-anchor="start" x="296" y="-485.7" font-family="Times,serif" font-size="14.00">learning_object</text>
<text text-anchor="start" x="296" y="-468.9" font-family="Times,serif" font-size="14.00">my_group</text>
<text text-anchor="start" x="296" y="-452.1" font-family="Times,serif" font-size="14.00">my_groups</text>
<text text-anchor="start" x="296" y="-435.3" font-family="Times,serif" font-size="14.00">new</text>
<text text-anchor="start" x="296" y="-418.5" font-family="Times,serif" font-size="14.00">show</text>
<text text-anchor="start" x="296" y="-401.7" font-family="Times,serif" font-size="14.00">update</text>
<text text-anchor="start" x="296" y="-384.9" font-family="Times,serif" font-size="14.00">user</text>
<polyline fill="none" stroke="black" points="288,-378.1 497.635,-378.1 "/>
<polyline fill="none" stroke="black" points="288,-354.1 497.635,-354.1 "/>
<text text-anchor="start" x="296" y="-336.1" font-family="Times,serif" font-size="14.00">_layout</text>
<text text-anchor="start" x="296" y="-319.3" font-family="Times,serif" font-size="14.00">breadcrumb</text>
</g>
<!-- LearningObjectsController -->
<g id="node9" class="node"><title>LearningObjectsController</title>
<polyline fill="none" stroke="black" points="300,-720.5 485.635,-720.5 "/>
<path fill="none" stroke="black" d="M485.635,-720.5C491.635,-720.5 497.635,-726.5 497.635,-732.5"/>
<polyline fill="none" stroke="black" points="497.635,-732.5 497.635,-1025.3 "/>
<path fill="none" stroke="black" d="M497.635,-1025.3C497.635,-1031.3 491.635,-1037.3 485.635,-1037.3"/>
<polyline fill="none" stroke="black" points="485.635,-1037.3 300,-1037.3 "/>
<path fill="none" stroke="black" d="M300,-1037.3C294,-1037.3 288,-1031.3 288,-1025.3"/>
<polyline fill="none" stroke="black" points="288,-1025.3 288,-732.5 "/>
<path fill="none" stroke="black" d="M288,-732.5C288,-726.5 294,-720.5 300,-720.5"/>
<text text-anchor="middle" x="392.817" y="-1019.3" font-family="Times,serif" font-size="14.00">LearningObjectsController</text>
<polyline fill="none" stroke="black" points="288,-1012.5 497.635,-1012.5 "/>
<text text-anchor="start" x="296" y="-994.5" font-family="Times,serif" font-size="14.00">_callback_before_223</text>
<text text-anchor="start" x="296" y="-977.7" font-family="Times,serif" font-size="14.00">_callback_before_225</text>
<text text-anchor="start" x="296" y="-960.9" font-family="Times,serif" font-size="14.00">_one_time_conditions_valid_222?</text>
<text text-anchor="start" x="296" y="-944.1" font-family="Times,serif" font-size="14.00">_one_time_conditions_valid_224?</text>
<text text-anchor="start" x="296" y="-927.3" font-family="Times,serif" font-size="14.00">_one_time_conditions_valid_226?</text>
<text text-anchor="start" x="296" y="-910.5" font-family="Times,serif" font-size="14.00">create</text>
<text text-anchor="start" x="296" y="-893.7" font-family="Times,serif" font-size="14.00">destroy</text>
<text text-anchor="start" x="296" y="-876.9" font-family="Times,serif" font-size="14.00">edit</text>
<text text-anchor="start" x="296" y="-860.1" font-family="Times,serif" font-size="14.00">index</text>
<text text-anchor="start" x="296" y="-843.3" font-family="Times,serif" font-size="14.00">new</text>
<text text-anchor="start" x="296" y="-826.5" font-family="Times,serif" font-size="14.00">show</text>
<text text-anchor="start" x="296" y="-809.7" font-family="Times,serif" font-size="14.00">sort_exercises</text>
<text text-anchor="start" x="296" y="-792.9" font-family="Times,serif" font-size="14.00">sort_introductions</text>
<text text-anchor="start" x="296" y="-776.1" font-family="Times,serif" font-size="14.00">update</text>
<polyline fill="none" stroke="black" points="288,-769.3 497.635,-769.3 "/>
<polyline fill="none" stroke="black" points="288,-745.3 497.635,-745.3 "/>
<text text-anchor="start" x="296" y="-727.3" font-family="Times,serif" font-size="14.00">_layout</text>
</g>
<!-- Published::FractalsController -->
<g id="node10" class="node"><title>Published::FractalsController</title>
<polyline fill="none" stroke="black" points="564,-120.5 749.635,-120.5 "/>
<path fill="none" stroke="black" d="M749.635,-120.5C755.635,-120.5 761.635,-126.5 761.635,-132.5"/>
<polyline fill="none" stroke="black" points="761.635,-132.5 761.635,-307.7 "/>
<path fill="none" stroke="black" d="M761.635,-307.7C761.635,-313.7 755.635,-319.7 749.635,-319.7"/>
<polyline fill="none" stroke="black" points="749.635,-319.7 564,-319.7 "/>
<path fill="none" stroke="black" d="M564,-319.7C558,-319.7 552,-313.7 552,-307.7"/>
<polyline fill="none" stroke="black" points="552,-307.7 552,-132.5 "/>
<path fill="none" stroke="black" d="M552,-132.5C552,-126.5 558,-120.5 564,-120.5"/>
<text text-anchor="middle" x="656.817" y="-301.7" font-family="Times,serif" font-size="14.00">Published::FractalsController</text>
<polyline fill="none" stroke="black" points="552,-294.9 761.635,-294.9 "/>
<text text-anchor="start" x="560" y="-276.9" font-family="Times,serif" font-size="14.00">_one_time_conditions_valid_228?</text>
<text text-anchor="start" x="560" y="-260.1" font-family="Times,serif" font-size="14.00">destroy</text>
<text text-anchor="start" x="560" y="-243.3" font-family="Times,serif" font-size="14.00">preview</text>
<text text-anchor="start" x="560" y="-226.5" font-family="Times,serif" font-size="14.00">show</text>
<polyline fill="none" stroke="black" points="552,-219.7 761.635,-219.7 "/>
<polyline fill="none" stroke="black" points="552,-195.7 761.635,-195.7 "/>
<text text-anchor="start" x="560" y="-177.7" font-family="Times,serif" font-size="14.00">_layout</text>
<text text-anchor="start" x="560" y="-160.9" font-family="Times,serif" font-size="14.00">breadcumb</text>
<text text-anchor="start" x="560" y="-144.1" font-family="Times,serif" font-size="14.00">breadcumb_preview</text>
<text text-anchor="start" x="560" y="-127.3" font-family="Times,serif" font-size="14.00">published_fractal</text>
</g>
<!-- QuestionsController -->
<g id="node11" class="node"><title>QuestionsController</title>
<polyline fill="none" stroke="black" points="660,-744.5 845.635,-744.5 "/>
<path fill="none" stroke="black" d="M845.635,-744.5C851.635,-744.5 857.635,-750.5 857.635,-756.5"/>
<polyline fill="none" stroke="black" points="857.635,-756.5 857.635,-1015.7 "/>
<path fill="none" stroke="black" d="M857.635,-1015.7C857.635,-1021.7 851.635,-1027.7 845.635,-1027.7"/>
<polyline fill="none" stroke="black" points="845.635,-1027.7 660,-1027.7 "/>
<path fill="none" stroke="black" d="M660,-1027.7C654,-1027.7 648,-1021.7 648,-1015.7"/>
<polyline fill="none" stroke="black" points="648,-1015.7 648,-756.5 "/>
<path fill="none" stroke="black" d="M648,-756.5C648,-750.5 654,-744.5 660,-744.5"/>
<text text-anchor="middle" x="752.817" y="-1009.7" font-family="Times,serif" font-size="14.00">QuestionsController</text>
<polyline fill="none" stroke="black" points="648,-1002.9 857.635,-1002.9 "/>
<text text-anchor="start" x="656" y="-984.9" font-family="Times,serif" font-size="14.00">_callback_before_251</text>
<text text-anchor="start" x="656" y="-968.1" font-family="Times,serif" font-size="14.00">_one_time_conditions_valid_248?</text>
<text text-anchor="start" x="656" y="-951.3" font-family="Times,serif" font-size="14.00">_one_time_conditions_valid_250?</text>
<text text-anchor="start" x="656" y="-934.5" font-family="Times,serif" font-size="14.00">_one_time_conditions_valid_252?</text>
<text text-anchor="start" x="656" y="-917.7" font-family="Times,serif" font-size="14.00">create</text>
<text text-anchor="start" x="656" y="-900.9" font-family="Times,serif" font-size="14.00">destroy</text>
<text text-anchor="start" x="656" y="-884.1" font-family="Times,serif" font-size="14.00">edit</text>
<text text-anchor="start" x="656" y="-867.3" font-family="Times,serif" font-size="14.00">new</text>
<text text-anchor="start" x="656" y="-850.5" font-family="Times,serif" font-size="14.00">update</text>
<text text-anchor="start" x="656" y="-833.7" font-family="Times,serif" font-size="14.00">verify_and_save_answer</text>
<text text-anchor="start" x="656" y="-816.9" font-family="Times,serif" font-size="14.00">verify_answer</text>
<polyline fill="none" stroke="black" points="648,-810.1 857.635,-810.1 "/>
<polyline fill="none" stroke="black" points="648,-786.1 857.635,-786.1 "/>
<text text-anchor="start" x="656" y="-768.1" font-family="Times,serif" font-size="14.00">_layout</text>
<text text-anchor="start" x="656" y="-751.3" font-family="Times,serif" font-size="14.00">load_parents_breadcrumbs</text>
</g>
<!-- RegistrationsController -->
<g id="node12" class="node"><title>RegistrationsController</title>
<polyline fill="none" stroke="black" points="36,-888.5 221.635,-888.5 "/>
<path fill="none" stroke="black" d="M221.635,-888.5C227.635,-888.5 233.635,-894.5 233.635,-900.5"/>
<polyline fill="none" stroke="black" points="233.635,-900.5 233.635,-1092.5 "/>
<path fill="none" stroke="black" d="M233.635,-1092.5C233.635,-1098.5 227.635,-1104.5 221.635,-1104.5"/>
<polyline fill="none" stroke="black" points="221.635,-1104.5 36,-1104.5 "/>
<path fill="none" stroke="black" d="M36,-1104.5C30,-1104.5 24,-1098.5 24,-1092.5"/>
<polyline fill="none" stroke="black" points="24,-1092.5 24,-900.5 "/>
<path fill="none" stroke="black" d="M24,-900.5C24,-894.5 30,-888.5 36,-888.5"/>
<text text-anchor="middle" x="128.817" y="-1086.5" font-family="Times,serif" font-size="14.00">RegistrationsController</text>
<polyline fill="none" stroke="black" points="24,-1079.7 233.635,-1079.7 "/>
<text text-anchor="start" x="32" y="-1061.7" font-family="Times,serif" font-size="14.00">_one_time_conditions_valid_264?</text>
<text text-anchor="start" x="32" y="-1044.9" font-family="Times,serif" font-size="14.00">_one_time_conditions_valid_268?</text>
<text text-anchor="start" x="32" y="-1028.1" font-family="Times,serif" font-size="14.00">_one_time_conditions_valid_272?</text>
<text text-anchor="start" x="32" y="-1011.3" font-family="Times,serif" font-size="14.00">_one_time_conditions_valid_276?</text>
<polyline fill="none" stroke="black" points="24,-1004.5 233.635,-1004.5 "/>
<polyline fill="none" stroke="black" points="24,-980.5 233.635,-980.5 "/>
<text text-anchor="start" x="32" y="-962.5" font-family="Times,serif" font-size="14.00">_layout</text>
<text text-anchor="start" x="32" y="-945.7" font-family="Times,serif" font-size="14.00">add_breadcrumb_edit</text>
<text text-anchor="start" x="32" y="-928.9" font-family="Times,serif" font-size="14.00">add_breadcrumb_new</text>
<text text-anchor="start" x="32" y="-912.1" font-family="Times,serif" font-size="14.00">change_mass_assignment</text>
<text text-anchor="start" x="32" y="-895.3" font-family="Times,serif" font-size="14.00">change_mass_assignment_create</text>
</g>
<!-- SessionsController -->
<g id="node13" class="node"><title>SessionsController</title>
<polyline fill="none" stroke="black" points="828,-480.5 1013.63,-480.5 "/>
<path fill="none" stroke="black" d="M1013.63,-480.5C1019.63,-480.5 1025.63,-486.5 1025.63,-492.5"/>
<polyline fill="none" stroke="black" points="1025.63,-492.5 1025.63,-583.7 "/>
<path fill="none" stroke="black" d="M1025.63,-583.7C1025.63,-589.7 1019.63,-595.7 1013.63,-595.7"/>
<polyline fill="none" stroke="black" points="1013.63,-595.7 828,-595.7 "/>
<path fill="none" stroke="black" d="M828,-595.7C822,-595.7 816,-589.7 816,-583.7"/>
<polyline fill="none" stroke="black" points="816,-583.7 816,-492.5 "/>
<path fill="none" stroke="black" d="M816,-492.5C816,-486.5 822,-480.5 828,-480.5"/>
<text text-anchor="middle" x="920.817" y="-577.7" font-family="Times,serif" font-size="14.00">SessionsController</text>
<polyline fill="none" stroke="black" points="816,-570.9 1025.63,-570.9 "/>
<text text-anchor="start" x="824" y="-552.9" font-family="Times,serif" font-size="14.00">_one_time_conditions_valid_288?</text>
<polyline fill="none" stroke="black" points="816,-546.1 1025.63,-546.1 "/>
<polyline fill="none" stroke="black" points="816,-522.1 1025.63,-522.1 "/>
<text text-anchor="start" x="824" y="-504.1" font-family="Times,serif" font-size="14.00">_layout</text>
<text text-anchor="start" x="824" y="-487.3" font-family="Times,serif" font-size="14.00">load_breadcumb</text>
</g>
<!-- SiteController -->
<g id="node14" class="node"><title>SiteController</title>
<polyline fill="none" stroke="black" points="228,-0.5 299.324,-0.5 "/>
<path fill="none" stroke="black" d="M299.324,-0.5C305.324,-0.5 311.324,-6.5 311.324,-12.5"/>
<polyline fill="none" stroke="black" points="311.324,-12.5 311.324,-86.9 "/>
<path fill="none" stroke="black" d="M311.324,-86.9C311.324,-92.9 305.324,-98.9 299.324,-98.9"/>
<polyline fill="none" stroke="black" points="299.324,-98.9 228,-98.9 "/>
<path fill="none" stroke="black" d="M228,-98.9C222,-98.9 216,-92.9 216,-86.9"/>
<polyline fill="none" stroke="black" points="216,-86.9 216,-12.5 "/>
<path fill="none" stroke="black" d="M216,-12.5C216,-6.5 222,-0.5 228,-0.5"/>
<text text-anchor="middle" x="263.662" y="-80.9" font-family="Times,serif" font-size="14.00">SiteController</text>
<polyline fill="none" stroke="black" points="216,-74.1 311.324,-74.1 "/>
<text text-anchor="start" x="224" y="-56.1" font-family="Times,serif" font-size="14.00">home</text>
<polyline fill="none" stroke="black" points="216,-49.3 311.324,-49.3 "/>
<polyline fill="none" stroke="black" points="216,-25.3 311.324,-25.3 "/>
<text text-anchor="start" x="224" y="-7.3" font-family="Times,serif" font-size="14.00">_layout</text>
</g>
</g>
</svg>
