<?xml version="1.0" encoding="UTF-8" standalone="no"?>
<!DOCTYPE svg PUBLIC "-//W3C//DTD SVG 1.1//EN"
 "http://www.w3.org/Graphics/SVG/1.1/DTD/svg11.dtd">
<!-- Generated by graphviz version 2.28.0 (20120617.2251)
 -->
<!-- Title: models_diagram Pages: 1 -->
<svg width="979pt" height="510pt"
 viewBox="0.00 0.00 979.00 510.00" xmlns="http://www.w3.org/2000/svg" xmlns:xlink="http://www.w3.org/1999/xlink">
<g id="graph1" class="graph" transform="scale(1 1) rotate(0) translate(4 506)">
<title>models_diagram</title>
<polygon fill="white" stroke="white" points="-4,5 -4,-506 976,-506 976,5 -4,5"/>
<!-- _diagram_info -->
<g id="node1" class="node"><title>_diagram_info</title>
<text text-anchor="start" x="72.2798" y="-485.2" font-family="Times,serif" font-size="13.00">Models diagram</text>
<text text-anchor="start" x="72.2798" y="-469.6" font-family="Times,serif" font-size="13.00">Date: Jun 17 2012 &#45; 22:13</text>
<text text-anchor="start" x="72.2798" y="-454" font-family="Times,serif" font-size="13.00">Generated by RailRoady 1.0.7</text>
<text text-anchor="start" x="72.2798" y="-438.4" font-family="Times,serif" font-size="13.00">http://railroady.prestonlee.com</text>
</g>
<!-- Answer -->
<g id="node2" class="node"><title>Answer</title>
<ellipse fill="none" stroke="black" cx="310" cy="-18" rx="41.1096" ry="18"/>
<text text-anchor="middle" x="310" y="-12.4" font-family="Times,serif" font-size="14.00">Answer</text>
</g>
<!-- Ckeditor::Asset -->
<g id="node3" class="node"><title>Ckeditor::Asset</title>
<ellipse fill="none" stroke="black" cx="488" cy="-467" rx="71.4843" ry="18"/>
<text text-anchor="middle" x="488" y="-461.4" font-family="Times,serif" font-size="14.00">Ckeditor::Asset</text>
</g>
<!-- Ckeditor::AttachmentFile -->
<g id="node4" class="node"><title>Ckeditor::AttachmentFile</title>
<ellipse fill="none" stroke="black" cx="688" cy="-467" rx="109.906" ry="18"/>
<text text-anchor="middle" x="688" y="-461.4" font-family="Times,serif" font-size="14.00">Ckeditor::AttachmentFile</text>
</g>
<!-- Ckeditor::Picture -->
<g id="node5" class="node"><title>Ckeditor::Picture</title>
<ellipse fill="none" stroke="black" cx="894" cy="-467" rx="77.3258" ry="18"/>
<text text-anchor="middle" x="894" y="-461.4" font-family="Times,serif" font-size="14.00">Ckeditor::Picture</text>
</g>
<!-- CorrectAnswer -->
<g id="node6" class="node"><title>CorrectAnswer</title>
<ellipse fill="none" stroke="black" cx="174" cy="-90" rx="70.0445" ry="18"/>
<text text-anchor="middle" x="174" y="-84.4" font-family="Times,serif" font-size="14.00">CorrectAnswer</text>
</g>
<!-- CorrectAnswer&#45;&gt;Answer -->
<g id="edge2" class="edge"><title>CorrectAnswer&#45;&gt;Answer</title>
<path fill="none" stroke="#98d1bf" d="M211.153,-69.8773C231.2,-59.5589 255.786,-46.9044 275.422,-36.7973"/>
<ellipse fill="none" stroke="#98d1bf" cx="207.402" cy="-71.8076" rx="4.00002" ry="4.00002"/>
<polygon fill="#98d1bf" stroke="#98d1bf" points="275.451,-36.7828 286.401,-36.2074 279.896,-34.4945 284.342,-32.2063 284.342,-32.2063 284.342,-32.2063 279.896,-34.4945 282.283,-28.2052 275.451,-36.7828 275.451,-36.7828"/>
</g>
<!-- LastUserAnswer -->
<g id="node11" class="node"><title>LastUserAnswer</title>
<ellipse fill="none" stroke="black" cx="76" cy="-18" rx="75.4003" ry="18"/>
<text text-anchor="middle" x="76" y="-12.4" font-family="Times,serif" font-size="14.00">LastUserAnswer</text>
</g>
<!-- CorrectAnswer&#45;&gt;LastUserAnswer -->
<g id="edge4" class="edge"><title>CorrectAnswer&#45;&gt;LastUserAnswer</title>
<path fill="none" stroke="#8d2973" d="M144.76,-68.1145C132.968,-59.6912 119.341,-49.9576 107.344,-41.3884"/>
<ellipse fill="none" stroke="#8d2973" cx="148.016" cy="-70.4397" rx="4.00002" ry="4.00002"/>
<polygon fill="#8d2973" stroke="#8d2973" points="107.083,-41.2022 101.561,-31.728 103.014,-38.296 98.9457,-35.3898 98.9457,-35.3898 98.9457,-35.3898 103.014,-38.296 96.3301,-39.0516 107.083,-41.2022 107.083,-41.2022"/>
</g>
<!-- Exercise -->
<g id="node7" class="node"><title>Exercise</title>
<ellipse fill="none" stroke="black" cx="256" cy="-234" rx="43.9209" ry="18"/>
<text text-anchor="middle" x="256" y="-228.4" font-family="Times,serif" font-size="14.00">Exercise</text>
</g>
<!-- Exercise&#45;&gt;Answer -->
<g id="edge10" class="edge"><title>Exercise&#45;&gt;Answer</title>
<path fill="none" stroke="#1eefbb" d="M274.17,-209.659C280.161,-200.823 286.245,-190.383 290,-180 306.265,-135.023 309.752,-78.8778 310.256,-46.1686"/>
<ellipse fill="none" stroke="#1eefbb" cx="271.738" cy="-213.102" rx="4.00002" ry="4.00002"/>
<polygon fill="#1eefbb" stroke="#1eefbb" points="310.257,-46.0241 314.827,-36.0558 310.292,-41.0242 310.327,-36.0243 310.327,-36.0243 310.327,-36.0243 310.292,-41.0242 305.827,-35.9928 310.257,-46.0241 310.257,-46.0241"/>
</g>
<!-- FractalExercise -->
<g id="node9" class="node"><title>FractalExercise</title>
<ellipse fill="none" stroke="black" cx="101" cy="-162" rx="71.136" ry="18"/>
<text text-anchor="middle" x="101" y="-156.4" font-family="Times,serif" font-size="14.00">FractalExercise</text>
</g>
<!-- Exercise&#45;&gt;FractalExercise -->
<g id="edge8" class="edge"><title>Exercise&#45;&gt;FractalExercise</title>
<path fill="none" stroke="#3a4c33" d="M217.052,-217.967C192.496,-207.461 161.108,-193.35 137.112,-182.056"/>
<ellipse fill="none" stroke="#3a4c33" cx="220.808" cy="-219.562" rx="4.00002" ry="4.00002"/>
<ellipse fill="#3a4c33" stroke="#3a4c33" cx="133.213" cy="-180.209" rx="4.00002" ry="4.00002"/>
</g>
<!-- Question -->
<g id="node14" class="node"><title>Question</title>
<ellipse fill="none" stroke="black" cx="236" cy="-162" rx="45.3604" ry="18"/>
<text text-anchor="middle" x="236" y="-156.4" font-family="Times,serif" font-size="14.00">Question</text>
</g>
<!-- Exercise&#45;&gt;Question -->
<g id="edge6" class="edge"><title>Exercise&#45;&gt;Question</title>
<path fill="none" stroke="#24a01e" d="M248.934,-208.267C247.24,-202.34 245.423,-195.981 243.702,-189.959"/>
<ellipse fill="none" stroke="#24a01e" cx="250.06" cy="-212.209" rx="4.00001" ry="4.00001"/>
<polygon fill="#24a01e" stroke="#24a01e" points="243.683,-189.891 245.263,-179.039 242.309,-185.083 240.936,-180.275 240.936,-180.275 240.936,-180.275 242.309,-185.083 236.609,-181.512 243.683,-189.891 243.683,-189.891"/>
</g>
<!-- Fractal -->
<g id="node8" class="node"><title>Fractal</title>
<ellipse fill="none" stroke="black" cx="452" cy="-306" rx="37.2739" ry="18"/>
<text text-anchor="middle" x="452" y="-300.4" font-family="Times,serif" font-size="14.00">Fractal</text>
</g>
<!-- FractalExercise&#45;&gt;Exercise -->
<g id="edge12" class="edge"><title>FractalExercise&#45;&gt;Exercise</title>
<path fill="none" stroke="#d84651" d="M147.668,-181.357C171.432,-191.648 199.759,-204.442 221.538,-214.721"/>
<polygon fill="#d84651" stroke="#d84651" points="147.658,-181.353 140.249,-173.269 143.065,-179.378 138.471,-177.403 138.471,-177.403 138.471,-177.403 143.065,-179.378 136.694,-181.537 147.658,-181.353 147.658,-181.353"/>
<polygon fill="#d84651" stroke="#d84651" points="221.852,-214.871 228.946,-223.233 226.366,-217.02 230.881,-219.17 230.881,-219.17 230.881,-219.17 226.366,-217.02 232.816,-215.107 221.852,-214.871 221.852,-214.871"/>
</g>
<!-- Introduction -->
<g id="node10" class="node"><title>Introduction</title>
<ellipse fill="none" stroke="black" cx="135" cy="-234" rx="58.1637" ry="18"/>
<text text-anchor="middle" x="135" y="-228.4" font-family="Times,serif" font-size="14.00">Introduction</text>
</g>
<!-- LearningGroup -->
<g id="node12" class="node"><title>LearningGroup</title>
<ellipse fill="none" stroke="black" cx="328" cy="-467" rx="70.3506" ry="18"/>
<text text-anchor="middle" x="328" y="-461.4" font-family="Times,serif" font-size="14.00">LearningGroup</text>
</g>
<!-- LearningObject -->
<g id="node13" class="node"><title>LearningObject</title>
<ellipse fill="none" stroke="black" cx="271" cy="-306" rx="71.449" ry="18"/>
<text text-anchor="middle" x="271" y="-300.4" font-family="Times,serif" font-size="14.00">LearningObject</text>
</g>
<!-- LearningGroup&#45;&gt;LearningObject -->
<g id="edge14" class="edge"><title>LearningGroup&#45;&gt;LearningObject</title>
<path fill="none" stroke="#3b13ad" d="M311.762,-440.345C304.211,-427.453 295.668,-411.344 290,-396 282.575,-375.9 277.685,-352.118 274.727,-334.197"/>
<polygon fill="#3b13ad" stroke="#3b13ad" points="311.877,-440.536 313.173,-451.425 314.454,-444.821 317.03,-449.106 317.03,-449.106 317.03,-449.106 314.454,-444.821 320.887,-446.787 311.877,-440.536 311.877,-440.536"/>
<polygon fill="#3b13ad" stroke="#3b13ad" points="274.7,-334.02 277.615,-323.449 273.934,-329.079 273.168,-324.138 273.168,-324.138 273.168,-324.138 273.934,-329.079 268.721,-324.828 274.7,-334.02 274.7,-334.02"/>
</g>
<!-- User -->
<g id="node15" class="node"><title>User</title>
<ellipse fill="none" stroke="black" cx="328" cy="-378" rx="28.9087" ry="18"/>
<text text-anchor="middle" x="328" y="-372.4" font-family="Times,serif" font-size="14.00">User</text>
</g>
<!-- LearningGroup&#45;&gt;User -->
<g id="edge16" class="edge"><title>LearningGroup&#45;&gt;User</title>
<path fill="none" stroke="#565e46" d="M321.685,-438.708C321.1,-428.291 321.105,-416.426 321.7,-406.033"/>
<polygon fill="#565e46" stroke="#565e46" points="321.696,-438.844 318.011,-449.172 322.096,-443.828 322.496,-448.812 322.496,-448.812 322.496,-448.812 322.096,-443.828 326.982,-448.451 321.696,-438.844 321.696,-438.844"/>
<polygon fill="#565e46" stroke="#565e46" points="321.717,-405.823 327.018,-396.224 322.125,-400.84 322.533,-395.857 322.533,-395.857 322.533,-395.857 322.125,-400.84 318.048,-395.489 321.717,-405.823 321.717,-405.823"/>
</g>
<!-- LearningObject&#45;&gt;Answer -->
<g id="edge22" class="edge"><title>LearningObject&#45;&gt;Answer</title>
<path fill="none" stroke="#698e94" d="M291.698,-281.887C298.382,-273.122 305.074,-262.669 309,-252 336.687,-176.755 329.19,-151.758 321,-72 320.123,-63.455 318.469,-54.2552 316.706,-45.9576"/>
<ellipse fill="none" stroke="#698e94" cx="289.128" cy="-285.109" rx="4.00002" ry="4.00002"/>
<polygon fill="#698e94" stroke="#698e94" points="316.671,-45.8005 318.853,-35.054 315.568,-40.9237 314.464,-36.0469 314.464,-36.0469 314.464,-36.0469 315.568,-40.9237 310.075,-37.0399 316.671,-45.8005 316.671,-45.8005"/>
</g>
<!-- LearningObject&#45;&gt;Exercise -->
<g id="edge18" class="edge"><title>LearningObject&#45;&gt;Exercise</title>
<path fill="none" stroke="#8e1d00" d="M265.566,-279.64C264.34,-273.92 263.034,-267.828 261.795,-262.042"/>
<ellipse fill="none" stroke="#8e1d00" cx="266.454" cy="-283.785" rx="4.00001" ry="4.00001"/>
<polygon fill="#8e1d00" stroke="#8e1d00" points="261.761,-261.882 264.065,-251.161 260.713,-256.993 259.665,-252.104 259.665,-252.104 259.665,-252.104 260.713,-256.993 255.265,-253.047 261.761,-261.882 261.761,-261.882"/>
</g>
<!-- LearningObject&#45;&gt;Introduction -->
<g id="edge20" class="edge"><title>LearningObject&#45;&gt;Introduction</title>
<path fill="none" stroke="#5148e7" d="M233.902,-285.906C214.943,-276.147 191.914,-264.294 172.849,-254.481"/>
<ellipse fill="none" stroke="#5148e7" cx="237.598" cy="-287.808" rx="4.00002" ry="4.00002"/>
<polygon fill="#5148e7" stroke="#5148e7" points="172.735,-254.422 165.903,-245.845 168.289,-252.134 163.843,-249.846 163.843,-249.846 163.843,-249.846 168.289,-252.134 161.784,-253.847 172.735,-254.422 172.735,-254.422"/>
</g>
<!-- Question&#45;&gt;Answer -->
<g id="edge26" class="edge"><title>Question&#45;&gt;Answer</title>
<path fill="none" stroke="#e3a0a2" d="M248.546,-136.925C261.881,-111.336 282.889,-71.0229 296.557,-44.7966"/>
<ellipse fill="none" stroke="#e3a0a2" cx="246.628" cy="-140.606" rx="4.00002" ry="4.00002"/>
<polygon fill="#e3a0a2" stroke="#e3a0a2" points="296.611,-44.6931 305.223,-37.9046 298.921,-40.259 301.232,-35.825 301.232,-35.825 301.232,-35.825 298.921,-40.259 297.241,-33.7453 296.611,-44.6931 296.611,-44.6931"/>
</g>
<!-- Question&#45;&gt;CorrectAnswer -->
<g id="edge24" class="edge"><title>Question&#45;&gt;CorrectAnswer</title>
<path fill="none" stroke="#6891b4" d="M216.278,-138.734C209.72,-131.329 202.381,-123.043 195.683,-115.481"/>
<ellipse fill="none" stroke="#6891b4" cx="218.968" cy="-141.77" rx="4.00002" ry="4.00002"/>
<polygon fill="#6891b4" stroke="#6891b4" points="195.363,-115.119 192.101,-104.65 192.048,-111.376 188.732,-107.633 188.732,-107.633 188.732,-107.633 192.048,-111.376 185.364,-110.617 195.363,-115.119 195.363,-115.119"/>
</g>
<!-- Question&#45;&gt;LastUserAnswer -->
<g id="edge28" class="edge"><title>Question&#45;&gt;LastUserAnswer</title>
<path fill="none" stroke="#c520af" d="M194.151,-147.537C155.093,-134.612 101.818,-115.92 95,-108 80.3882,-91.0273 76.1325,-65.5635 75.2443,-46.2156"/>
<ellipse fill="none" stroke="#c520af" cx="197.956" cy="-148.789" rx="4.00001" ry="4.00001"/>
<polygon fill="#c520af" stroke="#c520af" points="75.2438,-46.1869 79.552,-36.1028 75.1483,-41.1878 75.0529,-36.1888 75.0529,-36.1888 75.0529,-36.1888 75.1483,-41.1878 70.5537,-36.2747 75.2438,-46.1869 75.2438,-46.1869"/>
</g>
<!-- User&#45;&gt;Answer -->
<g id="edge36" class="edge"><title>User&#45;&gt;Answer</title>
<path fill="none" stroke="#4edbf6" d="M343.572,-354.495C360.751,-327.421 386,-279.98 386,-235 386,-235 386,-235 386,-161 386,-114.881 354.452,-69.2446 332.008,-42.6133"/>
<ellipse fill="none" stroke="#4edbf6" cx="341.362" cy="-357.895" rx="4.00002" ry="4.00002"/>
<polygon fill="#4edbf6" stroke="#4edbf6" points="331.936,-42.5302 328.778,-32.0289 328.658,-38.7547 325.38,-34.9791 325.38,-34.9791 325.38,-34.9791 328.658,-38.7547 321.982,-37.9293 331.936,-42.5302 331.936,-42.5302"/>
</g>
<!-- User&#45;&gt;Fractal -->
<g id="edge32" class="edge"><title>User&#45;&gt;Fractal</title>
<path fill="none" stroke="#a24495" d="M355.846,-361.281C374.77,-350.598 399.865,-336.431 419.673,-325.249"/>
<ellipse fill="none" stroke="#a24495" cx="352.238" cy="-363.317" rx="4.00002" ry="4.00002"/>
<polygon fill="#a24495" stroke="#a24495" points="419.932,-325.103 430.852,-324.106 424.286,-322.645 428.64,-320.187 428.64,-320.187 428.64,-320.187 424.286,-322.645 426.428,-316.268 419.932,-325.103 419.932,-325.103"/>
</g>
<!-- User&#45;&gt;LastUserAnswer -->
<g id="edge38" class="edge"><title>User&#45;&gt;LastUserAnswer</title>
<path fill="none" stroke="#42b072" d="M290.633,-377.357C205.02,-376.024 2,-359.715 2,-235 2,-235 2,-235 2,-161 2,-115.652 32.0464,-70.4396 53.8477,-43.6026"/>
<ellipse fill="none" stroke="#42b072" cx="294.783" cy="-377.401" rx="4" ry="4"/>
<polygon fill="#42b072" stroke="#42b072" points="53.889,-43.5532 63.7576,-38.7719 57.0978,-39.7186 60.3065,-35.884 60.3065,-35.884 60.3065,-35.884 57.0978,-39.7186 56.8554,-32.9961 53.889,-43.5532 53.889,-43.5532"/>
</g>
<!-- User&#45;&gt;LearningGroup -->
<g id="edge30" class="edge"><title>User&#45;&gt;LearningGroup</title>
<path fill="none" stroke="#60f971" d="M334.181,-404.082C334.892,-414.922 334.937,-427.633 334.315,-438.708"/>
<ellipse fill="none" stroke="#60f971" cx="333.813" cy="-399.842" rx="4" ry="4"/>
<polygon fill="#60f971" stroke="#60f971" points="334.304,-438.844 329.018,-448.451 333.904,-443.828 333.504,-448.812 333.504,-448.812 333.504,-448.812 333.904,-443.828 337.989,-449.172 334.304,-438.844 334.304,-438.844"/>
</g>
<!-- User&#45;&gt;LearningObject -->
<g id="edge34" class="edge"><title>User&#45;&gt;LearningObject</title>
<path fill="none" stroke="#655c49" d="M310.202,-355.143C304.188,-347.757 297.431,-339.459 291.242,-331.859"/>
<ellipse fill="none" stroke="#655c49" cx="312.824" cy="-358.363" rx="4.00002" ry="4.00002"/>
<polygon fill="#655c49" stroke="#655c49" points="291.126,-331.716 288.301,-321.12 287.969,-327.839 284.812,-323.962 284.812,-323.962 284.812,-323.962 287.969,-327.839 281.322,-326.803 291.126,-331.716 291.126,-331.716"/>
</g>
</g>
</svg>
