<?xml version="1.0" encoding="UTF-8" standalone="no"?>
<!DOCTYPE svg PUBLIC "-//W3C//DTD SVG 1.1//EN"
 "http://www.w3.org/Graphics/SVG/1.1/DTD/svg11.dtd">
<!-- Generated by graphviz version 2.28.0 (20120617.2251)
 -->
<!-- Title: models_diagram Pages: 1 -->
<svg width="1076pt" height="1858pt"
 viewBox="0.00 0.00 1076.00 1858.00" xmlns="http://www.w3.org/2000/svg" xmlns:xlink="http://www.w3.org/1999/xlink">
<g id="graph1" class="graph" transform="scale(1 1) rotate(0) translate(4 1854)">
<title>models_diagram</title>
<polygon fill="white" stroke="white" points="-4,5 -4,-1854 1073,-1854 1073,5 -4,5"/>
<!-- _diagram_info -->
<g id="node1" class="node"><title>_diagram_info</title>
<text text-anchor="start" x="161.28" y="-1750.2" font-family="Times,serif" font-size="13.00">Models diagram</text>
<text text-anchor="start" x="161.28" y="-1734.6" font-family="Times,serif" font-size="13.00">Date: Jun 17 2012 &#45; 22:13</text>
<text text-anchor="start" x="161.28" y="-1719" font-family="Times,serif" font-size="13.00">Generated by RailRoady 1.0.7</text>
<text text-anchor="start" x="161.28" y="-1703.4" font-family="Times,serif" font-size="13.00">http://railroady.prestonlee.com</text>
</g>
<!-- Answer -->
<g id="node2" class="node"><title>Answer</title>
<polyline fill="none" stroke="black" points="275.777,-0.4 460.223,-0.4 "/>
<path fill="none" stroke="black" d="M460.223,-0.4C466.223,-0.4 472.223,-6.4 472.223,-12.4"/>
<polyline fill="none" stroke="black" points="472.223,-12.4 472.223,-239.6 "/>
<path fill="none" stroke="black" d="M472.223,-239.6C472.223,-245.6 466.223,-251.6 460.223,-251.6"/>
<polyline fill="none" stroke="black" points="460.223,-251.6 275.777,-251.6 "/>
<path fill="none" stroke="black" d="M275.777,-251.6C269.777,-251.6 263.777,-245.6 263.777,-239.6"/>
<polyline fill="none" stroke="black" points="263.777,-239.6 263.777,-12.4 "/>
<path fill="none" stroke="black" d="M263.777,-12.4C263.777,-6.4 269.777,-0.4 275.777,-0.4"/>
<text text-anchor="middle" x="368" y="-233.6" font-family="Times,serif" font-size="14.00">Answer</text>
<polyline fill="none" stroke="black" points="263.777,-226.8 472.223,-226.8 "/>
<text text-anchor="start" x="271.777" y="-208.8" font-family="Times,serif" font-size="14.00">_id :BSON::ObjectId</text>
<text text-anchor="start" x="271.777" y="-192" font-family="Times,serif" font-size="14.00">_type :String</text>
<text text-anchor="start" x="271.777" y="-175.2" font-family="Times,serif" font-size="14.00">correct :Boolean</text>
<text text-anchor="start" x="271.777" y="-158.4" font-family="Times,serif" font-size="14.00">correct_answer_id :Object</text>
<text text-anchor="start" x="271.777" y="-141.6" font-family="Times,serif" font-size="14.00">created_at :Time</text>
<text text-anchor="start" x="271.777" y="-124.8" font-family="Times,serif" font-size="14.00">exercise_id :Object</text>
<text text-anchor="start" x="271.777" y="-108" font-family="Times,serif" font-size="14.00">exercise_question_reponses :Hash</text>
<text text-anchor="start" x="271.777" y="-91.2" font-family="Times,serif" font-size="14.00">learning_object_id :Object</text>
<text text-anchor="start" x="271.777" y="-74.4" font-family="Times,serif" font-size="14.00">question_id :Object</text>
<text text-anchor="start" x="271.777" y="-57.6" font-family="Times,serif" font-size="14.00">response :Object</text>
<text text-anchor="start" x="271.777" y="-40.8" font-family="Times,serif" font-size="14.00">right_response :Object</text>
<text text-anchor="start" x="271.777" y="-24" font-family="Times,serif" font-size="14.00">updated_at :Time</text>
<text text-anchor="start" x="271.777" y="-7.2" font-family="Times,serif" font-size="14.00">user_id :Object</text>
</g>
<!-- Ckeditor::Asset -->
<g id="node3" class="node"><title>Ckeditor::Asset</title>
<polyline fill="none" stroke="black" points="542.877,-1631.6 679.123,-1631.6 "/>
<path fill="none" stroke="black" d="M679.123,-1631.6C685.123,-1631.6 691.123,-1637.6 691.123,-1643.6"/>
<polyline fill="none" stroke="black" points="691.123,-1643.6 691.123,-1820.4 "/>
<path fill="none" stroke="black" d="M691.123,-1820.4C691.123,-1826.4 685.123,-1832.4 679.123,-1832.4"/>
<polyline fill="none" stroke="black" points="679.123,-1832.4 542.877,-1832.4 "/>
<path fill="none" stroke="black" d="M542.877,-1832.4C536.877,-1832.4 530.877,-1826.4 530.877,-1820.4"/>
<polyline fill="none" stroke="black" points="530.877,-1820.4 530.877,-1643.6 "/>
<path fill="none" stroke="black" d="M530.877,-1643.6C530.877,-1637.6 536.877,-1631.6 542.877,-1631.6"/>
<text text-anchor="middle" x="611" y="-1814.4" font-family="Times,serif" font-size="14.00">Ckeditor::Asset</text>
<polyline fill="none" stroke="black" points="530.877,-1807.6 691.123,-1807.6 "/>
<text text-anchor="start" x="538.877" y="-1789.6" font-family="Times,serif" font-size="14.00">_id :BSON::ObjectId</text>
<text text-anchor="start" x="538.877" y="-1772.8" font-family="Times,serif" font-size="14.00">_type :String</text>
<text text-anchor="start" x="538.877" y="-1756" font-family="Times,serif" font-size="14.00">assetable_id :Object</text>
<text text-anchor="start" x="538.877" y="-1739.2" font-family="Times,serif" font-size="14.00">assetable_type :String</text>
<text text-anchor="start" x="538.877" y="-1722.4" font-family="Times,serif" font-size="14.00">created_at :Time</text>
<text text-anchor="start" x="538.877" y="-1705.6" font-family="Times,serif" font-size="14.00">data_content_type :String</text>
<text text-anchor="start" x="538.877" y="-1688.8" font-family="Times,serif" font-size="14.00">data_file_size :Integer</text>
<text text-anchor="start" x="538.877" y="-1672" font-family="Times,serif" font-size="14.00">height :Integer</text>
<text text-anchor="start" x="538.877" y="-1655.2" font-family="Times,serif" font-size="14.00">updated_at :Time</text>
<text text-anchor="start" x="538.877" y="-1638.4" font-family="Times,serif" font-size="14.00">width :Integer</text>
</g>
<!-- Ckeditor::AttachmentFile -->
<g id="node4" class="node"><title>Ckeditor::AttachmentFile</title>
<polyline fill="none" stroke="black" points="720.692,-1614.8 867.308,-1614.8 "/>
<path fill="none" stroke="black" d="M867.308,-1614.8C873.308,-1614.8 879.308,-1620.8 879.308,-1626.8"/>
<polyline fill="none" stroke="black" points="879.308,-1626.8 879.308,-1837.2 "/>
<path fill="none" stroke="black" d="M879.308,-1837.2C879.308,-1843.2 873.308,-1849.2 867.308,-1849.2"/>
<polyline fill="none" stroke="black" points="867.308,-1849.2 720.692,-1849.2 "/>
<path fill="none" stroke="black" d="M720.692,-1849.2C714.692,-1849.2 708.692,-1843.2 708.692,-1837.2"/>
<polyline fill="none" stroke="black" points="708.692,-1837.2 708.692,-1626.8 "/>
<path fill="none" stroke="black" d="M708.692,-1626.8C708.692,-1620.8 714.692,-1614.8 720.692,-1614.8"/>
<text text-anchor="middle" x="794" y="-1831.2" font-family="Times,serif" font-size="14.00">Ckeditor::AttachmentFile</text>
<polyline fill="none" stroke="black" points="708.692,-1824.4 879.308,-1824.4 "/>
<text text-anchor="start" x="716.692" y="-1806.4" font-family="Times,serif" font-size="14.00">_id :BSON::ObjectId</text>
<text text-anchor="start" x="716.692" y="-1789.6" font-family="Times,serif" font-size="14.00">_type :String</text>
<text text-anchor="start" x="716.692" y="-1772.8" font-family="Times,serif" font-size="14.00">assetable_id :Object</text>
<text text-anchor="start" x="716.692" y="-1756" font-family="Times,serif" font-size="14.00">assetable_type :String</text>
<text text-anchor="start" x="716.692" y="-1739.2" font-family="Times,serif" font-size="14.00">created_at :Time</text>
<text text-anchor="start" x="716.692" y="-1722.4" font-family="Times,serif" font-size="14.00">data_content_type :String</text>
<text text-anchor="start" x="716.692" y="-1705.6" font-family="Times,serif" font-size="14.00">data_file_name :String</text>
<text text-anchor="start" x="716.692" y="-1688.8" font-family="Times,serif" font-size="14.00">data_file_size :Integer</text>
<text text-anchor="start" x="716.692" y="-1672" font-family="Times,serif" font-size="14.00">data_updated_at :DateTime</text>
<text text-anchor="start" x="716.692" y="-1655.2" font-family="Times,serif" font-size="14.00">height :Integer</text>
<text text-anchor="start" x="716.692" y="-1638.4" font-family="Times,serif" font-size="14.00">updated_at :Time</text>
<text text-anchor="start" x="716.692" y="-1621.6" font-family="Times,serif" font-size="14.00">width :Integer</text>
</g>
<!-- Ckeditor::Picture -->
<g id="node5" class="node"><title>Ckeditor::Picture</title>
<polyline fill="none" stroke="black" points="909.692,-1614.8 1056.31,-1614.8 "/>
<path fill="none" stroke="black" d="M1056.31,-1614.8C1062.31,-1614.8 1068.31,-1620.8 1068.31,-1626.8"/>
<polyline fill="none" stroke="black" points="1068.31,-1626.8 1068.31,-1837.2 "/>
<path fill="none" stroke="black" d="M1068.31,-1837.2C1068.31,-1843.2 1062.31,-1849.2 1056.31,-1849.2"/>
<polyline fill="none" stroke="black" points="1056.31,-1849.2 909.692,-1849.2 "/>
<path fill="none" stroke="black" d="M909.692,-1849.2C903.692,-1849.2 897.692,-1843.2 897.692,-1837.2"/>
<polyline fill="none" stroke="black" points="897.692,-1837.2 897.692,-1626.8 "/>
<path fill="none" stroke="black" d="M897.692,-1626.8C897.692,-1620.8 903.692,-1614.8 909.692,-1614.8"/>
<text text-anchor="middle" x="983" y="-1831.2" font-family="Times,serif" font-size="14.00">Ckeditor::Picture</text>
<polyline fill="none" stroke="black" points="897.692,-1824.4 1068.31,-1824.4 "/>
<text text-anchor="start" x="905.692" y="-1806.4" font-family="Times,serif" font-size="14.00">_id :BSON::ObjectId</text>
<text text-anchor="start" x="905.692" y="-1789.6" font-family="Times,serif" font-size="14.00">_type :String</text>
<text text-anchor="start" x="905.692" y="-1772.8" font-family="Times,serif" font-size="14.00">assetable_id :Object</text>
<text text-anchor="start" x="905.692" y="-1756" font-family="Times,serif" font-size="14.00">assetable_type :String</text>
<text text-anchor="start" x="905.692" y="-1739.2" font-family="Times,serif" font-size="14.00">created_at :Time</text>
<text text-anchor="start" x="905.692" y="-1722.4" font-family="Times,serif" font-size="14.00">data_content_type :String</text>
<text text-anchor="start" x="905.692" y="-1705.6" font-family="Times,serif" font-size="14.00">data_file_name :String</text>
<text text-anchor="start" x="905.692" y="-1688.8" font-family="Times,serif" font-size="14.00">data_file_size :Integer</text>
<text text-anchor="start" x="905.692" y="-1672" font-family="Times,serif" font-size="14.00">data_updated_at :DateTime</text>
<text text-anchor="start" x="905.692" y="-1655.2" font-family="Times,serif" font-size="14.00">height :Integer</text>
<text text-anchor="start" x="905.692" y="-1638.4" font-family="Times,serif" font-size="14.00">updated_at :Time</text>
<text text-anchor="start" x="905.692" y="-1621.6" font-family="Times,serif" font-size="14.00">width :Integer</text>
</g>
<!-- CorrectAnswer -->
<g id="node6" class="node"><title>CorrectAnswer</title>
<polyline fill="none" stroke="black" points="178.309,-288.4 289.691,-288.4 "/>
<path fill="none" stroke="black" d="M289.691,-288.4C295.691,-288.4 301.691,-294.4 301.691,-300.4"/>
<polyline fill="none" stroke="black" points="301.691,-300.4 301.691,-443.6 "/>
<path fill="none" stroke="black" d="M301.691,-443.6C301.691,-449.6 295.691,-455.6 289.691,-455.6"/>
<polyline fill="none" stroke="black" points="289.691,-455.6 178.309,-455.6 "/>
<path fill="none" stroke="black" d="M178.309,-455.6C172.309,-455.6 166.309,-449.6 166.309,-443.6"/>
<polyline fill="none" stroke="black" points="166.309,-443.6 166.309,-300.4 "/>
<path fill="none" stroke="black" d="M166.309,-300.4C166.309,-294.4 172.309,-288.4 178.309,-288.4"/>
<text text-anchor="middle" x="234" y="-437.6" font-family="Times,serif" font-size="14.00">CorrectAnswer</text>
<polyline fill="none" stroke="black" points="166.309,-430.8 301.691,-430.8 "/>
<text text-anchor="start" x="174.309" y="-412.8" font-family="Times,serif" font-size="14.00">_id :BSON::ObjectId</text>
<text text-anchor="start" x="174.309" y="-396" font-family="Times,serif" font-size="14.00">_type :String</text>
<text text-anchor="start" x="174.309" y="-379.2" font-family="Times,serif" font-size="14.00">ask :Boolean</text>
<text text-anchor="start" x="174.309" y="-362.4" font-family="Times,serif" font-size="14.00">created_at :Time</text>
<text text-anchor="start" x="174.309" y="-345.6" font-family="Times,serif" font-size="14.00">iteration :Integer</text>
<text text-anchor="start" x="174.309" y="-328.8" font-family="Times,serif" font-size="14.00">question_id :Object</text>
<text text-anchor="start" x="174.309" y="-312" font-family="Times,serif" font-size="14.00">response :Object</text>
<text text-anchor="start" x="174.309" y="-295.2" font-family="Times,serif" font-size="14.00">updated_at :Time</text>
</g>
<!-- CorrectAnswer&#45;&gt;Answer -->
<g id="edge2" class="edge"><title>CorrectAnswer&#45;&gt;Answer</title>
<path fill="none" stroke="#36618d" d="M283.334,-281.168C286.93,-274.62 290.599,-267.938 294.296,-261.207"/>
<ellipse fill="none" stroke="#36618d" cx="281.292" cy="-284.887" rx="4.00002" ry="4.00002"/>
<polygon fill="#36618d" stroke="#36618d" points="294.536,-260.77 303.294,-254.17 296.943,-256.387 299.35,-252.004 299.35,-252.004 299.35,-252.004 296.943,-256.387 295.406,-249.838 294.536,-260.77 294.536,-260.77"/>
</g>
<!-- LastUserAnswer -->
<g id="node11" class="node"><title>LastUserAnswer</title>
<polyline fill="none" stroke="black" points="67.9497,-42.4 208.05,-42.4 "/>
<path fill="none" stroke="black" d="M208.05,-42.4C214.05,-42.4 220.05,-48.4 220.05,-54.4"/>
<polyline fill="none" stroke="black" points="220.05,-54.4 220.05,-197.6 "/>
<path fill="none" stroke="black" d="M220.05,-197.6C220.05,-203.6 214.05,-209.6 208.05,-209.6"/>
<polyline fill="none" stroke="black" points="208.05,-209.6 67.9497,-209.6 "/>
<path fill="none" stroke="black" d="M67.9497,-209.6C61.9497,-209.6 55.9497,-203.6 55.9497,-197.6"/>
<polyline fill="none" stroke="black" points="55.9497,-197.6 55.9497,-54.4 "/>
<path fill="none" stroke="black" d="M55.9497,-54.4C55.9497,-48.4 61.9497,-42.4 67.9497,-42.4"/>
<text text-anchor="middle" x="138" y="-191.6" font-family="Times,serif" font-size="14.00">LastUserAnswer</text>
<polyline fill="none" stroke="black" points="55.9497,-184.8 220.05,-184.8 "/>
<text text-anchor="start" x="63.9497" y="-166.8" font-family="Times,serif" font-size="14.00">_id :BSON::ObjectId</text>
<text text-anchor="start" x="63.9497" y="-150" font-family="Times,serif" font-size="14.00">_type :String</text>
<text text-anchor="start" x="63.9497" y="-133.2" font-family="Times,serif" font-size="14.00">correct :Boolean</text>
<text text-anchor="start" x="63.9497" y="-116.4" font-family="Times,serif" font-size="14.00">correct_answer_id :Object</text>
<text text-anchor="start" x="63.9497" y="-99.6" font-family="Times,serif" font-size="14.00">created_at :Time</text>
<text text-anchor="start" x="63.9497" y="-82.8" font-family="Times,serif" font-size="14.00">response :Object</text>
<text text-anchor="start" x="63.9497" y="-66" font-family="Times,serif" font-size="14.00">updated_at :Time</text>
<text text-anchor="start" x="63.9497" y="-49.2" font-family="Times,serif" font-size="14.00">user_id :Object</text>
</g>
<!-- CorrectAnswer&#45;&gt;LastUserAnswer -->
<g id="edge4" class="edge"><title>CorrectAnswer&#45;&gt;LastUserAnswer</title>
<path fill="none" stroke="#8c37f4" d="M198.556,-280.913C190.665,-260.856 182.287,-239.562 174.36,-219.414"/>
<ellipse fill="none" stroke="#8c37f4" cx="200.034" cy="-284.67" rx="4.00001" ry="4.00001"/>
<polygon fill="#8c37f4" stroke="#8c37f4" points="174.292,-219.243 174.819,-208.29 172.462,-214.59 170.631,-209.937 170.631,-209.937 170.631,-209.937 172.462,-214.59 166.443,-211.585 174.292,-219.243 174.292,-219.243"/>
</g>
<!-- Exercise -->
<g id="node7" class="node"><title>Exercise</title>
<polyline fill="none" stroke="black" points="224.164,-765 365.836,-765 "/>
<path fill="none" stroke="black" d="M365.836,-765C371.836,-765 377.836,-771 377.836,-777"/>
<polyline fill="none" stroke="black" points="377.836,-777 377.836,-937 "/>
<path fill="none" stroke="black" d="M377.836,-937C377.836,-943 371.836,-949 365.836,-949"/>
<polyline fill="none" stroke="black" points="365.836,-949 224.164,-949 "/>
<path fill="none" stroke="black" d="M224.164,-949C218.164,-949 212.164,-943 212.164,-937"/>
<polyline fill="none" stroke="black" points="212.164,-937 212.164,-777 "/>
<path fill="none" stroke="black" d="M212.164,-777C212.164,-771 218.164,-765 224.164,-765"/>
<text text-anchor="middle" x="295" y="-931" font-family="Times,serif" font-size="14.00">Exercise</text>
<polyline fill="none" stroke="black" points="212.164,-924.2 377.836,-924.2 "/>
<text text-anchor="start" x="220.164" y="-906.2" font-family="Times,serif" font-size="14.00">_id :BSON::ObjectId</text>
<text text-anchor="start" x="220.164" y="-889.4" font-family="Times,serif" font-size="14.00">_type :String</text>
<text text-anchor="start" x="220.164" y="-872.6" font-family="Times,serif" font-size="14.00">created_at :Time</text>
<text text-anchor="start" x="220.164" y="-855.8" font-family="Times,serif" font-size="14.00">enunciation :Object</text>
<text text-anchor="start" x="220.164" y="-839" font-family="Times,serif" font-size="14.00">learning_object_id :Object</text>
<text text-anchor="start" x="220.164" y="-822.2" font-family="Times,serif" font-size="14.00">position :Integer</text>
<text text-anchor="start" x="220.164" y="-805.4" font-family="Times,serif" font-size="14.00">slug :Object</text>
<text text-anchor="start" x="220.164" y="-788.6" font-family="Times,serif" font-size="14.00">title :Object</text>
<text text-anchor="start" x="220.164" y="-771.8" font-family="Times,serif" font-size="14.00">updated_at :Time</text>
</g>
<!-- Exercise&#45;&gt;Answer -->
<g id="edge10" class="edge"><title>Exercise&#45;&gt;Answer</title>
<path fill="none" stroke="#56daba" d="M339.94,-757.216C343.136,-747.488 345.915,-737.646 348,-728 382.01,-570.688 382.311,-384.889 377.168,-261.963"/>
<ellipse fill="none" stroke="#56daba" cx="338.583" cy="-761.2" rx="4.00001" ry="4.00001"/>
<polygon fill="#56daba" stroke="#56daba" points="377.159,-261.737 381.218,-251.551 376.941,-256.742 376.722,-251.747 376.722,-251.747 376.722,-251.747 376.941,-256.742 372.227,-251.943 377.159,-261.737 377.159,-261.737"/>
</g>
<!-- FractalExercise -->
<g id="node9" class="node"><title>FractalExercise</title>
<polyline fill="none" stroke="black" points="63.3086,-492.8 174.691,-492.8 "/>
<path fill="none" stroke="black" d="M174.691,-492.8C180.691,-492.8 186.691,-498.8 186.691,-504.8"/>
<polyline fill="none" stroke="black" points="186.691,-504.8 186.691,-715.2 "/>
<path fill="none" stroke="black" d="M186.691,-715.2C186.691,-721.2 180.691,-727.2 174.691,-727.2"/>
<polyline fill="none" stroke="black" points="174.691,-727.2 63.3086,-727.2 "/>
<path fill="none" stroke="black" d="M63.3086,-727.2C57.3086,-727.2 51.3086,-721.2 51.3086,-715.2"/>
<polyline fill="none" stroke="black" points="51.3086,-715.2 51.3086,-504.8 "/>
<path fill="none" stroke="black" d="M51.3086,-504.8C51.3086,-498.8 57.3086,-492.8 63.3086,-492.8"/>
<text text-anchor="middle" x="119" y="-709.2" font-family="Times,serif" font-size="14.00">FractalExercise</text>
<polyline fill="none" stroke="black" points="51.3086,-702.4 186.691,-702.4 "/>
<text text-anchor="start" x="59.3086" y="-684.4" font-family="Times,serif" font-size="14.00">_id :BSON::ObjectId</text>
<text text-anchor="start" x="59.3086" y="-667.6" font-family="Times,serif" font-size="14.00">_type :String</text>
<text text-anchor="start" x="59.3086" y="-650.8" font-family="Times,serif" font-size="14.00">angle :Integer</text>
<text text-anchor="start" x="59.3086" y="-634" font-family="Times,serif" font-size="14.00">axiom :Object</text>
<text text-anchor="start" x="59.3086" y="-617.2" font-family="Times,serif" font-size="14.00">constant :Object</text>
<text text-anchor="start" x="59.3086" y="-600.4" font-family="Times,serif" font-size="14.00">height :Float</text>
<text text-anchor="start" x="59.3086" y="-583.6" font-family="Times,serif" font-size="14.00">infinite :Boolean</text>
<text text-anchor="start" x="59.3086" y="-566.8" font-family="Times,serif" font-size="14.00">iterations :Integer</text>
<text text-anchor="start" x="59.3086" y="-550" font-family="Times,serif" font-size="14.00">name :Object</text>
<text text-anchor="start" x="59.3086" y="-533.2" font-family="Times,serif" font-size="14.00">rules :Array</text>
<text text-anchor="start" x="59.3086" y="-516.4" font-family="Times,serif" font-size="14.00">slug :Object</text>
<text text-anchor="start" x="59.3086" y="-499.6" font-family="Times,serif" font-size="14.00">width :Float</text>
</g>
<!-- Exercise&#45;&gt;FractalExercise -->
<g id="edge8" class="edge"><title>Exercise&#45;&gt;FractalExercise</title>
<path fill="none" stroke="#a4209d" d="M208.219,-758.169C202.238,-750.279 196.346,-742.338 190.49,-734.244"/>
<ellipse fill="none" stroke="#a4209d" cx="210.843" cy="-761.609" rx="4.00002" ry="4.00002"/>
<ellipse fill="#a4209d" stroke="#a4209d" cx="187.912" cy="-730.656" rx="4.00002" ry="4.00002"/>
</g>
<!-- Question -->
<g id="node14" class="node"><title>Question</title>
<polyline fill="none" stroke="black" points="216.309,-534.8 327.691,-534.8 "/>
<path fill="none" stroke="black" d="M327.691,-534.8C333.691,-534.8 339.691,-540.8 339.691,-546.8"/>
<polyline fill="none" stroke="black" points="339.691,-546.8 339.691,-673.2 "/>
<path fill="none" stroke="black" d="M339.691,-673.2C339.691,-679.2 333.691,-685.2 327.691,-685.2"/>
<polyline fill="none" stroke="black" points="327.691,-685.2 216.309,-685.2 "/>
<path fill="none" stroke="black" d="M216.309,-685.2C210.309,-685.2 204.309,-679.2 204.309,-673.2"/>
<polyline fill="none" stroke="black" points="204.309,-673.2 204.309,-546.8 "/>
<path fill="none" stroke="black" d="M204.309,-546.8C204.309,-540.8 210.309,-534.8 216.309,-534.8"/>
<text text-anchor="middle" x="272" y="-667.2" font-family="Times,serif" font-size="14.00">Question</text>
<polyline fill="none" stroke="black" points="204.309,-660.4 339.691,-660.4 "/>
<text text-anchor="start" x="212.309" y="-642.4" font-family="Times,serif" font-size="14.00">_id :BSON::ObjectId</text>
<text text-anchor="start" x="212.309" y="-625.6" font-family="Times,serif" font-size="14.00">_type :String</text>
<text text-anchor="start" x="212.309" y="-608.8" font-family="Times,serif" font-size="14.00">created_at :Time</text>
<text text-anchor="start" x="212.309" y="-592" font-family="Times,serif" font-size="14.00">enunciation :String</text>
<text text-anchor="start" x="212.309" y="-575.2" font-family="Times,serif" font-size="14.00">exercise_id :Object</text>
<text text-anchor="start" x="212.309" y="-558.4" font-family="Times,serif" font-size="14.00">title :String</text>
<text text-anchor="start" x="212.309" y="-541.6" font-family="Times,serif" font-size="14.00">updated_at :Time</text>
</g>
<!-- Exercise&#45;&gt;Question -->
<g id="edge6" class="edge"><title>Exercise&#45;&gt;Question</title>
<path fill="none" stroke="#470913" d="M285.683,-756.755C283.781,-736.495 281.797,-715.354 279.948,-695.66"/>
<ellipse fill="none" stroke="#470913" cx="286.062" cy="-760.789" rx="4" ry="4"/>
<polygon fill="#470913" stroke="#470913" points="279.929,-695.462 283.475,-685.085 279.462,-690.484 278.994,-685.506 278.994,-685.506 278.994,-685.506 279.462,-690.484 274.514,-685.927 279.929,-695.462 279.929,-695.462"/>
</g>
<!-- Fractal -->
<g id="node8" class="node"><title>Fractal</title>
<polyline fill="none" stroke="black" points="484.309,-987.2 595.691,-987.2 "/>
<path fill="none" stroke="black" d="M595.691,-987.2C601.691,-987.2 607.691,-993.2 607.691,-999.2"/>
<polyline fill="none" stroke="black" points="607.691,-999.2 607.691,-1192.8 "/>
<path fill="none" stroke="black" d="M607.691,-1192.8C607.691,-1198.8 601.691,-1204.8 595.691,-1204.8"/>
<polyline fill="none" stroke="black" points="595.691,-1204.8 484.309,-1204.8 "/>
<path fill="none" stroke="black" d="M484.309,-1204.8C478.309,-1204.8 472.309,-1198.8 472.309,-1192.8"/>
<polyline fill="none" stroke="black" points="472.309,-1192.8 472.309,-999.2 "/>
<path fill="none" stroke="black" d="M472.309,-999.2C472.309,-993.2 478.309,-987.2 484.309,-987.2"/>
<text text-anchor="middle" x="540" y="-1186.8" font-family="Times,serif" font-size="14.00">Fractal</text>
<polyline fill="none" stroke="black" points="472.309,-1180 607.691,-1180 "/>
<text text-anchor="start" x="480.309" y="-1162" font-family="Times,serif" font-size="14.00">_id :BSON::ObjectId</text>
<text text-anchor="start" x="480.309" y="-1145.2" font-family="Times,serif" font-size="14.00">_type :String</text>
<text text-anchor="start" x="480.309" y="-1128.4" font-family="Times,serif" font-size="14.00">angle :Integer</text>
<text text-anchor="start" x="480.309" y="-1111.6" font-family="Times,serif" font-size="14.00">axiom :Object</text>
<text text-anchor="start" x="480.309" y="-1094.8" font-family="Times,serif" font-size="14.00">constant :Object</text>
<text text-anchor="start" x="480.309" y="-1078" font-family="Times,serif" font-size="14.00">created_at :Time</text>
<text text-anchor="start" x="480.309" y="-1061.2" font-family="Times,serif" font-size="14.00">name :Object</text>
<text text-anchor="start" x="480.309" y="-1044.4" font-family="Times,serif" font-size="14.00">rules :Object</text>
<text text-anchor="start" x="480.309" y="-1027.6" font-family="Times,serif" font-size="14.00">slug :Object</text>
<text text-anchor="start" x="480.309" y="-1010.8" font-family="Times,serif" font-size="14.00">updated_at :Time</text>
<text text-anchor="start" x="480.309" y="-994" font-family="Times,serif" font-size="14.00">user_id :Object</text>
</g>
<!-- FractalExercise&#45;&gt;Exercise -->
<g id="edge12" class="edge"><title>FractalExercise&#45;&gt;Exercise</title>
<path fill="none" stroke="#325e79" d="M192.424,-711.459C196.3,-717.088 200.172,-722.634 204,-728 210.717,-737.416 217.849,-747.101 225.053,-756.726"/>
<polygon fill="#325e79" stroke="#325e79" points="192.396,-711.417 190.463,-700.623 189.572,-707.291 186.749,-703.164 186.749,-703.164 186.749,-703.164 189.572,-707.291 183.035,-705.706 192.396,-711.417 192.396,-711.417"/>
<polygon fill="#325e79" stroke="#325e79" points="225.105,-756.796 227.516,-767.494 228.109,-760.793 231.113,-764.79 231.113,-764.79 231.113,-764.79 228.109,-760.793 234.711,-762.086 225.105,-756.796 225.105,-756.796"/>
</g>
<!-- Introduction -->
<g id="node10" class="node"><title>Introduction</title>
<polyline fill="none" stroke="black" points="40.1636,-790.2 181.836,-790.2 "/>
<path fill="none" stroke="black" d="M181.836,-790.2C187.836,-790.2 193.836,-796.2 193.836,-802.2"/>
<polyline fill="none" stroke="black" points="193.836,-802.2 193.836,-911.8 "/>
<path fill="none" stroke="black" d="M193.836,-911.8C193.836,-917.8 187.836,-923.8 181.836,-923.8"/>
<polyline fill="none" stroke="black" points="181.836,-923.8 40.1636,-923.8 "/>
<path fill="none" stroke="black" d="M40.1636,-923.8C34.1636,-923.8 28.1636,-917.8 28.1636,-911.8"/>
<polyline fill="none" stroke="black" points="28.1636,-911.8 28.1636,-802.2 "/>
<path fill="none" stroke="black" d="M28.1636,-802.2C28.1636,-796.2 34.1636,-790.2 40.1636,-790.2"/>
<text text-anchor="middle" x="111" y="-905.8" font-family="Times,serif" font-size="14.00">Introduction</text>
<polyline fill="none" stroke="black" points="28.1636,-899 193.836,-899 "/>
<text text-anchor="start" x="36.1636" y="-881" font-family="Times,serif" font-size="14.00">_id :BSON::ObjectId</text>
<text text-anchor="start" x="36.1636" y="-864.2" font-family="Times,serif" font-size="14.00">_type :String</text>
<text text-anchor="start" x="36.1636" y="-847.4" font-family="Times,serif" font-size="14.00">content :Object</text>
<text text-anchor="start" x="36.1636" y="-830.6" font-family="Times,serif" font-size="14.00">learning_object_id :Object</text>
<text text-anchor="start" x="36.1636" y="-813.8" font-family="Times,serif" font-size="14.00">slug :Object</text>
<text text-anchor="start" x="36.1636" y="-797" font-family="Times,serif" font-size="14.00">title :Object</text>
</g>
<!-- LearningGroup -->
<g id="node12" class="node"><title>LearningGroup</title>
<polyline fill="none" stroke="black" points="358.774,-1631.6 501.226,-1631.6 "/>
<path fill="none" stroke="black" d="M501.226,-1631.6C507.226,-1631.6 513.226,-1637.6 513.226,-1643.6"/>
<polyline fill="none" stroke="black" points="513.226,-1643.6 513.226,-1820.4 "/>
<path fill="none" stroke="black" d="M513.226,-1820.4C513.226,-1826.4 507.226,-1832.4 501.226,-1832.4"/>
<polyline fill="none" stroke="black" points="501.226,-1832.4 358.774,-1832.4 "/>
<path fill="none" stroke="black" d="M358.774,-1832.4C352.774,-1832.4 346.774,-1826.4 346.774,-1820.4"/>
<polyline fill="none" stroke="black" points="346.774,-1820.4 346.774,-1643.6 "/>
<path fill="none" stroke="black" d="M346.774,-1643.6C346.774,-1637.6 352.774,-1631.6 358.774,-1631.6"/>
<text text-anchor="middle" x="430" y="-1814.4" font-family="Times,serif" font-size="14.00">LearningGroup</text>
<polyline fill="none" stroke="black" points="346.774,-1807.6 513.226,-1807.6 "/>
<text text-anchor="start" x="354.774" y="-1789.6" font-family="Times,serif" font-size="14.00">_id :BSON::ObjectId</text>
<text text-anchor="start" x="354.774" y="-1772.8" font-family="Times,serif" font-size="14.00">_type :String</text>
<text text-anchor="start" x="354.774" y="-1756" font-family="Times,serif" font-size="14.00">code :String</text>
<text text-anchor="start" x="354.774" y="-1739.2" font-family="Times,serif" font-size="14.00">created_at :Time</text>
<text text-anchor="start" x="354.774" y="-1722.4" font-family="Times,serif" font-size="14.00">learning_object_ids :Array</text>
<text text-anchor="start" x="354.774" y="-1705.6" font-family="Times,serif" font-size="14.00">name :String</text>
<text text-anchor="start" x="354.774" y="-1688.8" font-family="Times,serif" font-size="14.00">owner_id :Integer</text>
<text text-anchor="start" x="354.774" y="-1672" font-family="Times,serif" font-size="14.00">slug :Object</text>
<text text-anchor="start" x="354.774" y="-1655.2" font-family="Times,serif" font-size="14.00">updated_at :Time</text>
<text text-anchor="start" x="354.774" y="-1638.4" font-family="Times,serif" font-size="14.00">user_ids :Array</text>
</g>
<!-- LearningObject -->
<g id="node13" class="node"><title>LearningObject</title>
<polyline fill="none" stroke="black" points="238.546,-1004 379.454,-1004 "/>
<path fill="none" stroke="black" d="M379.454,-1004C385.454,-1004 391.454,-1010 391.454,-1016"/>
<polyline fill="none" stroke="black" points="391.454,-1016 391.454,-1176 "/>
<path fill="none" stroke="black" d="M391.454,-1176C391.454,-1182 385.454,-1188 379.454,-1188"/>
<polyline fill="none" stroke="black" points="379.454,-1188 238.546,-1188 "/>
<path fill="none" stroke="black" d="M238.546,-1188C232.546,-1188 226.546,-1182 226.546,-1176"/>
<polyline fill="none" stroke="black" points="226.546,-1176 226.546,-1016 "/>
<path fill="none" stroke="black" d="M226.546,-1016C226.546,-1010 232.546,-1004 238.546,-1004"/>
<text text-anchor="middle" x="309" y="-1170" font-family="Times,serif" font-size="14.00">LearningObject</text>
<polyline fill="none" stroke="black" points="226.546,-1163.2 391.454,-1163.2 "/>
<text text-anchor="start" x="234.546" y="-1145.2" font-family="Times,serif" font-size="14.00">_id :BSON::ObjectId</text>
<text text-anchor="start" x="234.546" y="-1128.4" font-family="Times,serif" font-size="14.00">_type :String</text>
<text text-anchor="start" x="234.546" y="-1111.6" font-family="Times,serif" font-size="14.00">created_at :Time</text>
<text text-anchor="start" x="234.546" y="-1094.8" font-family="Times,serif" font-size="14.00">description :String</text>
<text text-anchor="start" x="234.546" y="-1078" font-family="Times,serif" font-size="14.00">learning_group_ids :Array</text>
<text text-anchor="start" x="234.546" y="-1061.2" font-family="Times,serif" font-size="14.00">name :String</text>
<text text-anchor="start" x="234.546" y="-1044.4" font-family="Times,serif" font-size="14.00">slug :Object</text>
<text text-anchor="start" x="234.546" y="-1027.6" font-family="Times,serif" font-size="14.00">updated_at :Time</text>
<text text-anchor="start" x="234.546" y="-1010.8" font-family="Times,serif" font-size="14.00">user_id :Object</text>
</g>
<!-- LearningGroup&#45;&gt;LearningObject -->
<g id="edge14" class="edge"><title>LearningGroup&#45;&gt;LearningObject</title>
<path fill="none" stroke="#fdb752" d="M347.574,-1622.45C339.733,-1608.08 332.895,-1593.09 328,-1578 287.106,-1451.96 289.579,-1297.54 297.387,-1198.24"/>
<polygon fill="#fdb752" stroke="#fdb752" points="347.661,-1622.61 348.66,-1633.53 350.12,-1626.96 352.578,-1631.31 352.578,-1631.31 352.578,-1631.31 350.12,-1626.96 356.497,-1629.1 347.661,-1622.61 347.661,-1622.61"/>
<polygon fill="#fdb752" stroke="#fdb752" points="297.393,-1198.17 302.694,-1188.57 297.801,-1193.19 298.209,-1188.2 298.209,-1188.2 298.209,-1188.2 297.801,-1193.19 293.724,-1187.84 297.393,-1198.17 297.393,-1198.17"/>
</g>
<!-- User -->
<g id="node15" class="node"><title>User</title>
<polyline fill="none" stroke="black" points="349.292,-1242.4 510.708,-1242.4 "/>
<path fill="none" stroke="black" d="M510.708,-1242.4C516.708,-1242.4 522.708,-1248.4 522.708,-1254.4"/>
<polyline fill="none" stroke="black" points="522.708,-1254.4 522.708,-1565.6 "/>
<path fill="none" stroke="black" d="M522.708,-1565.6C522.708,-1571.6 516.708,-1577.6 510.708,-1577.6"/>
<polyline fill="none" stroke="black" points="510.708,-1577.6 349.292,-1577.6 "/>
<path fill="none" stroke="black" d="M349.292,-1577.6C343.292,-1577.6 337.292,-1571.6 337.292,-1565.6"/>
<polyline fill="none" stroke="black" points="337.292,-1565.6 337.292,-1254.4 "/>
<path fill="none" stroke="black" d="M337.292,-1254.4C337.292,-1248.4 343.292,-1242.4 349.292,-1242.4"/>
<text text-anchor="middle" x="430" y="-1559.6" font-family="Times,serif" font-size="14.00">User</text>
<polyline fill="none" stroke="black" points="337.292,-1552.8 522.708,-1552.8 "/>
<text text-anchor="start" x="345.292" y="-1534.8" font-family="Times,serif" font-size="14.00">_id :BSON::ObjectId</text>
<text text-anchor="start" x="345.292" y="-1518" font-family="Times,serif" font-size="14.00">_type :String</text>
<text text-anchor="start" x="345.292" y="-1501.2" font-family="Times,serif" font-size="14.00">created_at :Time</text>
<text text-anchor="start" x="345.292" y="-1484.4" font-family="Times,serif" font-size="14.00">current_sign_in_at :Time</text>
<text text-anchor="start" x="345.292" y="-1467.6" font-family="Times,serif" font-size="14.00">current_sign_in_ip :String</text>
<text text-anchor="start" x="345.292" y="-1450.8" font-family="Times,serif" font-size="14.00">email :String</text>
<text text-anchor="start" x="345.292" y="-1434" font-family="Times,serif" font-size="14.00">encrypted_password :String</text>
<text text-anchor="start" x="345.292" y="-1417.2" font-family="Times,serif" font-size="14.00">last_sign_in_at :Time</text>
<text text-anchor="start" x="345.292" y="-1400.4" font-family="Times,serif" font-size="14.00">last_sign_in_ip :String</text>
<text text-anchor="start" x="345.292" y="-1383.6" font-family="Times,serif" font-size="14.00">learning_group_ids :Array</text>
<text text-anchor="start" x="345.292" y="-1366.8" font-family="Times,serif" font-size="14.00">name :String</text>
<text text-anchor="start" x="345.292" y="-1350" font-family="Times,serif" font-size="14.00">remember_created_at :Time</text>
<text text-anchor="start" x="345.292" y="-1333.2" font-family="Times,serif" font-size="14.00">reset_password_sent_at :Time</text>
<text text-anchor="start" x="345.292" y="-1316.4" font-family="Times,serif" font-size="14.00">reset_password_token :String</text>
<text text-anchor="start" x="345.292" y="-1299.6" font-family="Times,serif" font-size="14.00">school :String</text>
<text text-anchor="start" x="345.292" y="-1282.8" font-family="Times,serif" font-size="14.00">sign_in_count :Integer</text>
<text text-anchor="start" x="345.292" y="-1266" font-family="Times,serif" font-size="14.00">type :String</text>
<text text-anchor="start" x="345.292" y="-1249.2" font-family="Times,serif" font-size="14.00">updated_at :Time</text>
</g>
<!-- LearningGroup&#45;&gt;User -->
<g id="edge16" class="edge"><title>LearningGroup&#45;&gt;User</title>
<path fill="none" stroke="#98562e" d="M423.556,-1621.34C423.419,-1610.42 423.328,-1599.15 423.283,-1587.77"/>
<polygon fill="#98562e" stroke="#98562e" points="423.558,-1621.51 419.199,-1631.57 423.629,-1626.5 423.699,-1631.5 423.699,-1631.5 423.699,-1631.5 423.629,-1626.5 428.198,-1631.44 423.558,-1621.51 423.558,-1621.51"/>
<polygon fill="#98562e" stroke="#98562e" points="423.283,-1587.75 427.755,-1577.73 423.269,-1582.75 423.255,-1577.75 423.255,-1577.75 423.255,-1577.75 423.269,-1582.75 418.755,-1577.76 423.283,-1587.75 423.283,-1587.75"/>
</g>
<!-- LearningObject&#45;&gt;Answer -->
<g id="edge22" class="edge"><title>LearningObject&#45;&gt;Answer</title>
<path fill="none" stroke="#ee3cd3" d="M369.217,-996.329C376.08,-981.264 382.028,-965.545 386,-950 446.341,-713.838 418.291,-427.055 392.844,-261.925"/>
<ellipse fill="none" stroke="#ee3cd3" cx="367.476" cy="-1000.05" rx="4.00002" ry="4.00002"/>
<polygon fill="#ee3cd3" stroke="#ee3cd3" points="392.793,-261.594 395.696,-251.02 392.021,-256.654 391.25,-251.714 391.25,-251.714 391.25,-251.714 392.021,-256.654 386.804,-252.408 392.793,-261.594 392.793,-261.594"/>
</g>
<!-- LearningObject&#45;&gt;Exercise -->
<g id="edge18" class="edge"><title>LearningObject&#45;&gt;Exercise</title>
<path fill="none" stroke="#f1bce0" d="M303.134,-995.701C302.424,-983.67 301.697,-971.367 300.984,-959.307"/>
<ellipse fill="none" stroke="#f1bce0" cx="303.371" cy="-999.716" rx="4" ry="4"/>
<polygon fill="#f1bce0" stroke="#f1bce0" points="300.98,-959.227 304.882,-948.979 300.685,-954.236 300.39,-949.244 300.39,-949.244 300.39,-949.244 300.685,-954.236 295.898,-949.51 300.98,-959.227 300.98,-959.227"/>
</g>
<!-- LearningObject&#45;&gt;Introduction -->
<g id="edge20" class="edge"><title>LearningObject&#45;&gt;Introduction</title>
<path fill="none" stroke="#348523" d="M227.495,-997.441C209.146,-975.478 189.969,-952.524 172.594,-931.726"/>
<ellipse fill="none" stroke="#348523" cx="230.167" cy="-1000.64" rx="4.00002" ry="4.00002"/>
<polygon fill="#348523" stroke="#348523" points="172.44,-931.542 169.482,-920.983 169.234,-927.705 166.029,-923.868 166.029,-923.868 166.029,-923.868 169.234,-927.705 162.575,-926.753 172.44,-931.542 172.44,-931.542"/>
</g>
<!-- Question&#45;&gt;Answer -->
<g id="edge26" class="edge"><title>Question&#45;&gt;Answer</title>
<path fill="none" stroke="#846cde" d="M293.581,-526.561C299.243,-503.776 305.124,-478.992 310,-456 323.45,-392.577 336.212,-321.813 346.324,-262.211"/>
<ellipse fill="none" stroke="#846cde" cx="292.559" cy="-530.65" rx="4.00001" ry="4.00001"/>
<polygon fill="#846cde" stroke="#846cde" points="346.386,-261.843 352.488,-252.732 347.218,-256.913 348.051,-251.983 348.051,-251.983 348.051,-251.983 347.218,-256.913 343.614,-251.233 346.386,-261.843 346.386,-261.843"/>
</g>
<!-- Question&#45;&gt;CorrectAnswer -->
<g id="edge24" class="edge"><title>Question&#45;&gt;CorrectAnswer</title>
<path fill="none" stroke="#1946d0" d="M258.74,-526.648C255.589,-507.076 252.205,-486.06 248.982,-466.048"/>
<ellipse fill="none" stroke="#1946d0" cx="259.393" cy="-530.703" rx="4.00001" ry="4.00001"/>
<polygon fill="#1946d0" stroke="#1946d0" points="248.954,-465.875 251.807,-455.286 248.16,-460.938 247.365,-456.002 247.365,-456.002 247.365,-456.002 248.16,-460.938 242.922,-456.717 248.954,-465.875 248.954,-465.875"/>
</g>
<!-- Question&#45;&gt;LastUserAnswer -->
<g id="edge28" class="edge"><title>Question&#45;&gt;LastUserAnswer</title>
<path fill="none" stroke="#8d97b8" d="M222.141,-527.88C213.546,-515.515 204.354,-503.167 195,-492 180.062,-474.165 166.805,-477.097 157,-456 122.654,-382.098 120.646,-288.582 125.623,-220.158"/>
<ellipse fill="none" stroke="#8d97b8" cx="224.588" cy="-531.445" rx="4.00002" ry="4.00002"/>
<polygon fill="#8d97b8" stroke="#8d97b8" points="125.652,-219.793 130.928,-210.18 126.047,-214.809 126.442,-209.824 126.442,-209.824 126.442,-209.824 126.047,-214.809 121.956,-209.469 125.652,-219.793 125.652,-219.793"/>
</g>
<!-- User&#45;&gt;Answer -->
<g id="edge36" class="edge"><title>User&#45;&gt;Answer</title>
<path fill="none" stroke="#21f62b" d="M436.706,-1234.28C440.301,-1125.96 444,-983.912 444,-858 444,-858 444,-858 444,-609 444,-465.935 447.513,-428.394 420,-288 418.317,-279.413 416.322,-270.645 414.11,-261.854"/>
<ellipse fill="none" stroke="#21f62b" cx="436.57" cy="-1238.36" rx="4" ry="4"/>
<polygon fill="#21f62b" stroke="#21f62b" points="414.045,-261.604 415.88,-250.792 412.785,-256.765 411.525,-251.926 411.525,-251.926 411.525,-251.926 412.785,-256.765 407.17,-253.06 414.045,-261.604 414.045,-261.604"/>
</g>
<!-- User&#45;&gt;Fractal -->
<g id="edge32" class="edge"><title>User&#45;&gt;Fractal</title>
<path fill="none" stroke="#d8bc49" d="M491.567,-1234.37C493.937,-1227.65 496.29,-1220.98 498.608,-1214.4"/>
<ellipse fill="none" stroke="#d8bc49" cx="490.194" cy="-1238.27" rx="4.00001" ry="4.00001"/>
<polygon fill="#d8bc49" stroke="#d8bc49" points="498.653,-1214.27 506.222,-1206.34 500.316,-1209.56 501.978,-1204.84 501.978,-1204.84 501.978,-1204.84 500.316,-1209.56 497.734,-1203.35 498.653,-1214.27 498.653,-1214.27"/>
</g>
<!-- User&#45;&gt;LastUserAnswer -->
<g id="edge38" class="edge"><title>User&#45;&gt;LastUserAnswer</title>
<path fill="none" stroke="#a2b055" d="M330.483,-1343.93C203.471,-1252.11 0,-1071.68 0,-858 0,-858 0,-858 0,-609 0,-468.955 54.5092,-314.555 95.0111,-219.161"/>
<ellipse fill="none" stroke="#a2b055" cx="333.977" cy="-1346.44" rx="4.00002" ry="4.00002"/>
<polygon fill="#a2b055" stroke="#a2b055" points="95.0704,-219.023 103.145,-211.603 97.0393,-214.427 99.0081,-209.831 99.0081,-209.831 99.0081,-209.831 97.0393,-214.427 94.8716,-208.059 95.0704,-219.023 95.0704,-219.023"/>
</g>
<!-- User&#45;&gt;LearningGroup -->
<g id="edge30" class="edge"><title>User&#45;&gt;LearningGroup</title>
<path fill="none" stroke="#a1850c" d="M436.723,-1586.05C436.681,-1598.01 436.588,-1609.87 436.444,-1621.34"/>
<ellipse fill="none" stroke="#a1850c" cx="436.734" cy="-1581.75" rx="4" ry="4"/>
<polygon fill="#a1850c" stroke="#a1850c" points="436.442,-1621.51 431.802,-1631.44 436.371,-1626.5 436.301,-1631.5 436.301,-1631.5 436.301,-1631.5 436.371,-1626.5 440.801,-1631.57 436.442,-1621.51 436.442,-1621.51"/>
</g>
<!-- User&#45;&gt;LearningObject -->
<g id="edge34" class="edge"><title>User&#45;&gt;LearningObject</title>
<path fill="none" stroke="#7d6a8f" d="M362.221,-1234.23C357.365,-1221.71 352.572,-1209.35 347.97,-1197.49"/>
<ellipse fill="none" stroke="#7d6a8f" cx="363.803" cy="-1238.31" rx="4.00001" ry="4.00001"/>
<polygon fill="#7d6a8f" stroke="#7d6a8f" points="347.939,-1197.41 348.519,-1186.45 346.131,-1192.74 344.323,-1188.08 344.323,-1188.08 344.323,-1188.08 346.131,-1192.74 340.128,-1189.71 347.939,-1197.41 347.939,-1197.41"/>
</g>
</g>
</svg>
